<?xml version="1.0" standalone="no"?>
<!DOCTYPE svg PUBLIC "-//W3C//DTD SVG 20010904//EN"
 "http://www.w3.org/TR/2001/REC-SVG-20010904/DTD/svg10.dtd">
<svg version="1.0" xmlns="http://www.w3.org/2000/svg"
 width="1024.000000pt" height="1024.000000pt" viewBox="0 0 1024.000000 1024.000000"
 preserveAspectRatio="xMidYMid meet">
<metadata>
Created by potrace 1.16, written by Peter Selinger 2001-2019
</metadata>
<g transform="translate(0.000000,1024.000000) scale(0.100000,-0.100000)"
fill="#000000" stroke="none">
<path d="M0 5120 l0 -5120 2590 0 c1425 0 2590 3 2590 8 0 4 -15 18 -33 31
-29 21 -25 22 18 5 12 -5 15 2 15 35 0 38 -3 42 -60 81 -33 22 -60 45 -60 50
0 16 10 12 55 -26 29 -23 55 -36 78 -37 34 -2 35 -2 21 -29 -8 -15 -14 -39
-14 -53 0 -23 3 -25 28 -19 15 4 36 11 47 16 31 15 -24 -29 -60 -46 -27 -14
241 -16 2498 -16 l2527 0 0 2341 0 2341 -23 -14 c-12 -8 -51 -31 -85 -52 -49
-30 -63 -43 -59 -57 5 -20 -7 -26 -18 -9 -15 24 -288 -226 -366 -334 -18 -25
-37 -46 -42 -46 -31 0 225 271 339 358 27 20 57 44 66 53 10 8 56 37 103 63
l85 48 0 2774 0 2774 -450 0 -450 0 0 -155 0 -155 253 -3 252 -2 -253 -3 -252
-2 2 -470 3 -469 -25 6 c-33 8 -38 13 -12 13 22 0 22 3 22 154 l0 155 -27 4
-28 4 28 2 27 1 0 460 0 460 -4665 0 -4665 0 0 -5120z m4132 4728 c3 -24 13
-92 23 -151 17 -101 20 -108 39 -102 118 35 516 94 516 76 0 -4 -39 -11 -87
-15 -95 -7 -237 -32 -373 -66 -47 -11 -121 -29 -165 -39 -84 -20 -181 -49
-254 -75 -50 -18 -63 -20 -41 -6 20 13 252 86 318 101 29 6 52 14 52 18 0 4
-11 68 -25 142 -28 150 -29 159 -16 159 5 0 11 -19 13 -42z m978 -187 c0 -11
-87 -20 -205 -21 -103 -1 -341 -24 -412 -41 -26 -6 -59 -12 -73 -14 -14 -2
-50 -9 -80 -16 -30 -7 -64 -13 -75 -13 -11 -1 -35 -8 -54 -16 l-33 -15 6 -57
c3 -31 8 -76 12 -100 4 -29 2 -39 -4 -29 -5 7 -13 51 -17 97 -4 46 -11 84 -16
84 -32 0 -214 -48 -329 -87 -239 -81 -574 -231 -780 -349 -36 -20 -90 -50
-120 -66 -30 -17 -63 -39 -72 -50 -10 -11 -23 -16 -29 -12 -8 4 -9 3 -5 -5 4
-6 0 -14 -10 -18 -35 -13 -314 -218 -314 -230 0 -3 10 -2 23 2 53 16 176 23
242 14 69 -9 194 -59 216 -85 17 -21 3 -17 -42 12 -88 55 -275 80 -384 50 -28
-7 -57 -15 -65 -17 -9 -3 -14 2 -11 11 2 8 4 21 4 28 0 6 3 10 5 7 3 -3 14 2
24 12 10 9 27 21 37 27 10 6 57 40 105 76 176 133 240 174 441 282 235 126
549 265 764 337 101 34 383 106 546 140 140 28 334 51 521 60 88 4 165 9 172
9 6 1 12 -2 12 -7z m495 -11 c284 -22 513 -68 887 -180 109 -33 228 -74 265
-91 37 -17 102 -44 143 -59 188 -72 621 -315 726 -407 23 -20 -2 -6 -59 32
-305 204 -678 383 -1037 497 -161 52 -303 88 -312 79 -3 -3 -9 -50 -13 -104
l-7 -98 28 7 c16 4 39 11 51 15 13 5 53 11 90 14 l68 5 -85 -19 c-47 -11 -90
-20 -96 -20 -5 -1 -19 -7 -29 -15 -19 -14 -19 -15 0 -37 l20 -23 -25 17 c-13
9 -27 17 -30 17 -3 0 -4 -21 -1 -46 2 -25 -2 -51 -8 -57 -7 -7 -10 -3 -9 14 3
45 -2 79 -11 79 -5 0 -40 -47 -78 -105 -37 -57 -70 -104 -73 -104 -3 0 -14 7
-25 15 l-20 15 20 12 c11 7 25 12 32 12 6 0 34 35 62 77 27 42 64 87 83 100
l33 23 2 112 2 112 -87 20 c-138 32 -306 58 -452 71 -165 14 -265 27 -225 29
17 0 93 -4 170 -9z m33 -564 c174 -23 311 -50 510 -102 511 -133 936 -336
1326 -634 205 -156 198 -152 216 -135 14 13 16 12 17 -7 1 -12 -3 -28 -9 -35
-8 -10 -2 -17 22 -30 52 -28 134 -97 145 -121 5 -12 17 -24 25 -27 26 -8 276
-287 386 -430 62 -80 200 -282 244 -355 85 -145 209 -382 247 -475 52 -127 63
-157 57 -167 -4 -6 -3 -8 3 -5 6 4 13 -2 16 -13 3 -12 1 -18 -5 -14 -6 4 -8 1
-6 -7 3 -8 10 -13 16 -12 16 4 36 -75 23 -90 -6 -8 -5 -20 4 -37 8 -14 14 -20
15 -15 0 15 30 -45 30 -62 0 -8 -4 -11 -10 -8 -5 3 -10 1 -10 -4 0 -6 6 -11
14 -11 17 0 27 -29 62 -171 61 -253 97 -501 112 -764 l7 -130 27 3 c14 1 29
-2 32 -7 4 -5 -8 -8 -27 -7 l-34 3 -6 -162 c-4 -89 -16 -225 -27 -301 -21
-146 -78 -401 -104 -469 l-16 -40 5 40 5 40 -15 -30 c-8 -16 -14 -35 -15 -42
0 -6 -4 -15 -10 -18 -5 -3 -3 13 5 36 19 53 19 59 -2 59 -10 0 -25 5 -33 11
-11 7 -5 8 20 4 l36 -6 27 113 c23 93 67 322 67 351 0 4 -6 7 -14 7 -10 0 -17
-16 -21 -47 -8 -57 -14 -78 -21 -71 -2 3 -1 23 4 44 14 62 8 69 -68 83 -30 6
-32 8 -12 13 17 5 22 13 22 38 0 17 4 29 8 26 5 -3 7 -20 4 -38 -6 -47 7 -30
18 23 l9 44 -3 -45 c-3 -41 -2 -42 7 -17 13 33 27 36 20 5 -4 -16 -2 -20 5
-13 6 6 13 57 16 115 2 58 2 90 -2 72 -4 -18 -11 -33 -17 -33 -5 0 -15 -17
-22 -37 l-12 -37 1 35 c0 57 -5 59 -12 5 -5 -33 -7 -4 -6 87 l1 138 -325 5
c-191 3 -328 9 -334 15 -7 7 107 10 328 10 l339 0 -5 70 c-4 46 -2 71 6 74 6
2 -99 6 -234 8 l-245 3 234 2 234 3 -5 81 c-3 55 -9 84 -19 90 -10 6 -10 9 -1
9 14 0 7 113 -13 190 l-11 44 -34 -49 c-37 -57 -123 -158 -160 -192 -33 -30
-155 -113 -166 -113 -5 0 3 8 17 18 64 44 170 135 202 174 47 59 119 167 121
183 1 7 8 20 15 29 11 13 11 16 -2 16 -8 0 -26 -15 -40 -32 -13 -18 -37 -46
-52 -63 -14 -16 -34 -40 -42 -53 -9 -13 -25 -28 -36 -34 -11 -5 21 38 72 97
50 60 88 111 85 114 -3 3 -20 -10 -37 -30 -131 -147 -159 -182 -161 -197 -2
-9 -25 -32 -52 -51 -44 -31 -46 -32 -25 -8 39 44 8 31 -48 -19 -28 -25 -48
-39 -45 -30 3 9 39 40 78 69 104 75 289 278 284 311 -4 26 -30 25 -206 -10
-68 -13 -131 -24 -140 -23 -23 1 174 46 235 54 98 13 95 11 88 58 -4 23 -9 50
-11 60 -3 9 -1 17 5 17 6 0 11 -12 11 -26 0 -14 3 -23 8 -21 4 3 8 -9 10 -26
1 -18 4 -41 6 -52 3 -11 5 -22 5 -24 1 -2 11 4 23 15 20 17 21 18 15 1 -6 -17
-6 -17 18 0 13 10 26 23 29 29 7 19 -111 448 -130 473 -2 2 -9 -1 -16 -7 -7
-5 -24 -12 -38 -14 -20 -2 -25 -9 -25 -31 -1 -16 3 -31 7 -33 4 -3 8 -15 7
-27 0 -21 -1 -21 -11 3 -6 14 -13 39 -17 55 -6 28 -10 30 -44 27 -21 -2 -37 1
-37 7 0 5 18 9 40 8 22 -2 40 1 40 6 0 4 4 6 8 3 5 -3 25 -1 45 5 l36 10 -28
77 c-121 327 -328 690 -576 1007 -402 517 -1001 975 -1580 1207 -331 133 -679
223 -1045 268 -155 20 -207 22 -455 17 -288 -5 -395 -16 -655 -68 -109 -22
-322 -77 -400 -103 -62 -22 -16 -13 120 22 l115 29 28 -36 28 -35 -105 -30
c-77 -21 -106 -34 -106 -45 0 -13 -2 -13 -9 -3 -7 12 -13 12 -36 0 -22 -12
-24 -16 -12 -21 10 -4 20 0 25 10 7 11 11 12 17 4 5 -9 11 -9 23 3 10 8 59 26
110 41 l94 27 48 -52 c27 -29 54 -50 62 -48 7 3 -7 22 -37 51 -27 25 -47 48
-44 51 3 3 41 -11 85 -33 63 -30 91 -51 137 -104 32 -36 73 -76 93 -88 54 -33
34 -33 -40 1 -80 35 -80 35 -66 11 7 -14 6 -21 -3 -24 -6 -3 -3 -5 8 -5 11 0
49 -12 85 -27 58 -23 61 -25 25 -20 -105 14 -254 37 -290 45 -51 12 -235 13
-235 1 0 -5 34 -9 75 -10 68 -1 194 -31 220 -51 6 -4 19 -10 30 -12 21 -4
-251 -23 -294 -20 -35 2 -49 18 -60 72 -16 72 -2 128 43 179 l21 25 -31 -20
c-57 -36 -71 -49 -88 -81 -9 -18 -16 -42 -16 -55 -1 -22 -2 -22 -25 7 -30 37
-45 103 -45 205 l0 79 68 20 c232 68 552 129 799 151 149 13 597 5 741 -14z
m-1953 -22 c-11 -9 -40 -27 -65 -42 -97 -57 -147 -101 -169 -151 -19 -45 -41
-191 -29 -191 3 0 68 30 144 66 116 55 430 184 449 184 8 0 6 -43 -3 -56 -4
-6 -32 -19 -62 -29 -112 -36 -288 -109 -411 -171 -122 -61 -127 -62 -162 -50
l-37 12 38 17 c36 16 37 17 34 66 -2 27 2 75 8 108 10 50 19 65 65 108 28 28
88 71 131 97 81 48 105 59 69 32z m1935 -39 c465 -65 914 -201 1280 -385 226
-114 650 -406 820 -564 36 -34 86 -80 110 -102 70 -64 261 -271 327 -354 107
-136 307 -426 319 -464 4 -12 14 -26 23 -33 14 -11 14 -14 1 -24 -13 -9 -13
-10 2 -6 9 3 19 -1 22 -9 3 -8 0 -14 -6 -14 -7 0 -5 -5 4 -12 22 -18 68 -95
61 -102 -4 -3 -1 -6 6 -6 8 0 11 -6 7 -16 -3 -8 -2 -13 2 -10 5 3 18 -15 30
-40 26 -52 26 -55 10 -51 -7 1 -12 -4 -10 -12 3 -12 0 -12 -12 -1 -17 13 -22
35 -7 26 5 -3 11 1 14 9 4 10 1 12 -11 8 -13 -5 -14 -3 -5 7 6 7 9 19 6 27 -5
11 -9 11 -25 -4 -18 -16 -19 -16 -25 5 -4 17 -9 20 -23 12 -26 -14 -33 -12
-26 6 4 10 2 13 -6 8 -8 -5 -9 -2 -5 10 4 10 3 15 -3 11 -12 -7 -47 62 -36 72
4 4 11 1 16 -7 5 -8 13 -11 17 -6 4 5 2 11 -5 13 -6 3 -9 9 -6 15 4 6 -2 6
-14 -1 -29 -16 -34 -14 -22 9 12 23 -6 60 -30 60 -9 0 -11 -3 -5 -8 25 -18 36
-40 24 -48 -8 -4 -9 -3 -5 4 4 7 3 12 -2 12 -5 0 -40 51 -78 113 -37 61 -122
183 -189 270 -66 87 -132 174 -147 194 -28 36 -37 38 -18 3 7 -13 7 -21 0 -25
-6 -4 -8 -10 -5 -14 12 -21 -77 -281 -97 -281 -11 0 -10 18 2 25 6 3 10 12 10
18 0 8 -3 7 -9 -2 -7 -11 -11 -10 -20 5 -9 16 -10 17 -11 2 0 -9 6 -18 12 -20
8 -3 4 -9 -9 -17 -21 -11 -22 -10 -17 19 7 31 5 34 -19 24 -9 -3 -12 -14 -9
-30 2 -13 0 -24 -5 -24 -5 0 -8 16 -7 35 3 30 0 35 -17 35 -15 0 -19 5 -15 15
3 8 1 15 -4 15 -9 0 -15 -39 -11 -63 1 -5 -3 -6 -7 -3 -5 3 -8 22 -5 42 2 23
0 33 -7 29 -5 -3 -11 -16 -11 -28 -1 -14 -4 -9 -9 13 l-7 35 -3 -45 c-2 -35
-4 -39 -7 -16 -4 22 -7 26 -14 15 -6 -10 -9 -6 -10 16 0 19 -3 25 -7 15 -6
-12 -20 -14 -72 -9 -36 3 -52 6 -36 7 23 2 27 5 19 13 -9 9 -23 9 -52 1 -23
-5 -41 -6 -41 -1 0 5 12 9 27 9 19 0 24 3 16 11 -21 21 -56 6 -65 -28 -5 -18
-13 -33 -18 -33 -6 0 -10 -6 -10 -12 -1 -20 -38 -64 -47 -55 -4 5 0 14 9 21
20 15 68 117 67 143 0 10 -5 2 -11 -17 -5 -19 -16 -42 -24 -50 -12 -12 -14
-11 -14 8 0 15 4 21 11 16 7 -4 10 -1 7 7 -3 8 -23 14 -56 15 -28 0 -49 -2
-47 -6 6 -9 -25 -23 -33 -15 -3 3 1 5 8 5 7 0 11 3 7 6 -3 3 5 17 19 31 13 13
24 26 24 29 0 14 -35 64 -45 63 -32 -4 -38 2 -17 17 23 16 20 39 -4 30 -8 -3
-14 -2 -14 2 0 4 -16 18 -36 31 -30 21 -39 23 -55 13 -16 -10 -23 -10 -34 2
-25 25 -117 -14 -130 -55 -4 -10 -11 -19 -16 -19 -13 0 -11 14 3 28 9 9 9 12
0 12 -15 0 -26 -45 -16 -62 6 -10 4 -10 -9 1 -21 16 -23 8 -3 -12 13 -13 12
-14 -11 -14 -15 0 -20 2 -13 7 8 5 9 10 2 14 -22 14 -24 -18 -2 -36 12 -10 17
-18 11 -18 -6 0 -11 -9 -11 -21 0 -15 5 -19 15 -15 8 3 15 2 15 -2 0 -12 -15
-27 -27 -28 -30 -2 -33 -5 -32 -31 1 -28 1 -28 8 -4 4 14 12 26 19 29 14 4 16
-14 2 -23 -5 -3 -7 -12 -4 -19 3 -7 -2 -18 -10 -25 -12 -10 -17 -6 -30 20 -9
18 -16 43 -16 57 0 36 -44 88 -98 117 -26 13 -58 34 -72 45 l-25 21 25 -7 c39
-10 102 -44 129 -68 l24 -21 -11 21 c-23 43 -99 99 -176 128 -42 16 -76 31
-76 33 0 14 47 18 69 6 14 -7 35 -13 46 -12 13 0 15 3 6 6 -10 4 -10 7 -1 13
8 5 0 19 -24 45 -36 38 -36 38 -102 32 l-65 -5 19 22 c57 62 73 150 44 241
l-19 60 0 -77 c0 -66 -4 -85 -31 -140 -17 -35 -43 -75 -58 -88 l-27 -25 16 25
c24 39 47 129 47 184 0 106 -38 192 -116 267 l-37 34 37 -51 c64 -90 82 -185
54 -279 -12 -39 -12 -39 -19 55 -8 110 -21 145 -92 249 -29 41 -62 93 -74 116
-12 22 -22 33 -22 25 0 -8 15 -44 34 -80 82 -152 107 -233 104 -345 -1 -33 -3
-29 -9 20 -11 85 -43 173 -106 295 -69 136 -125 205 -210 263 -61 41 -144 84
-144 74 0 -2 25 -21 55 -41 53 -37 123 -111 158 -168 10 -16 29 -42 42 -56 35
-38 31 -49 -7 -17 -36 30 -144 86 -203 105 -49 15 -93 41 -165 96 -86 65 -191
114 -280 131 -40 7 -11 -13 45 -32 70 -23 201 -94 228 -123 l22 -25 -32 17
c-17 8 -89 37 -160 62 -135 49 -216 86 -246 112 -9 8 -19 13 -22 10 -6 -6 128
-129 200 -182 39 -30 -16 -18 -93 19 -112 54 -211 166 -212 242 0 54 110 125
194 124 22 0 84 -7 136 -16 52 -8 111 -18 130 -20 143 -21 399 -78 526 -117
l101 -32 -8 -35 c-4 -20 -15 -56 -24 -80 -17 -49 -18 -61 -7 -61 9 0 42 117
42 149 0 12 4 21 8 21 8 0 231 -89 277 -110 172 -79 372 -180 442 -224 97 -60
131 -84 308 -214 119 -88 160 -115 140 -95 -58 60 -399 298 -530 370 -232 128
-507 246 -742 318 -137 42 -186 55 -378 96 -101 22 -336 57 -436 66 -144 12
-256 -64 -277 -189 l-7 -41 -27 39 c-15 21 -30 51 -33 65 -10 39 33 84 106
110 32 12 59 24 59 27 0 2 -35 1 -77 -3 -43 -4 -84 -8 -90 -8 -7 0 -13 -3 -13
-6 0 -4 -44 -7 -97 -7 -169 -1 -213 -4 -213 -13 0 -5 8 -8 18 -6 9 2 71 6 137
9 l120 5 -52 -29 c-28 -16 -60 -42 -71 -57 -23 -33 -46 -109 -38 -129 4 -9 -2
-14 -17 -14 -36 0 -139 28 -182 48 -66 32 -177 79 -220 93 -38 12 -39 13 -15
19 14 4 90 17 170 31 80 13 137 25 128 27 -10 2 -86 -8 -170 -22 -216 -36
-199 -36 -230 -2 -25 26 -35 46 -24 46 2 0 46 9 97 19 115 24 354 60 469 71
134 13 578 4 710 -15z m-1612 -221 c-3 -44 -5 -47 -43 -62 -47 -18 -50 -20
-43 -28 4 -3 20 2 38 11 18 9 33 15 35 13 1 -2 5 -23 8 -48 6 -45 6 -45 -26
-47 -64 -4 -245 -69 -282 -102 -40 -35 -78 -44 -54 -13 13 16 13 16 -5 2 -10
-8 -31 -13 -45 -11 -27 3 -161 71 -161 82 0 5 235 121 315 154 53 23 248 94
258 94 4 1 7 -20 5 -45z m3158 -63 c43 -21 87 -48 98 -59 17 -20 21 -20 47 -7
53 28 195 55 290 56 152 2 310 -43 416 -118 17 -13 34 -23 38 -23 16 0 -23 35
-92 81 -39 27 -75 54 -79 61 -21 33 121 -75 217 -165 41 -40 96 -92 122 -116
45 -41 125 -138 141 -171 4 -8 -5 1 -20 20 -48 61 -186 191 -269 253 -69 51
-182 114 -190 105 -1 -2 -7 -21 -13 -43 l-11 -40 2 48 2 48 -50 15 c-150 44
-313 40 -453 -13 l-43 -16 31 -19 c17 -10 28 -22 25 -27 -3 -5 1 -11 7 -14 7
-2 10 -7 7 -11 -3 -3 -44 17 -90 45 -46 28 -104 61 -129 74 -60 31 -118 75
-99 75 8 0 51 -17 95 -39z m854 -64 c19 -18 51 -44 70 -59 44 -33 261 -247
317 -314 91 -105 105 -124 137 -187 19 -35 41 -73 49 -83 9 -10 42 -56 74
-101 66 -92 132 -167 141 -159 3 4 -6 19 -20 34 -24 26 -186 252 -202 282 -21
40 55 -57 152 -193 134 -188 130 -182 108 -174 -10 4 -15 3 -11 -3 3 -6 14
-10 23 -11 11 0 12 -3 5 -6 -19 -7 -16 -18 13 -52 25 -30 63 -44 48 -18 -6 10
-4 10 7 0 23 -22 63 -14 158 32 51 25 101 45 111 45 10 0 22 5 25 10 3 6 17
10 31 10 24 0 30 8 17 26 -5 5 -1 2 7 -7 11 -11 39 -18 86 -21 99 -7 183 -49
276 -139 73 -71 73 -71 8 -14 -36 31 -98 73 -139 93 -67 33 -84 37 -160 39
l-86 2 63 -9 c65 -9 167 -39 159 -46 -2 -2 -23 3 -47 11 -23 8 -58 15 -77 15
-29 0 -33 -2 -24 -14 17 -20 41 -142 41 -206 0 -105 -48 -225 -131 -326 -54
-65 -73 -70 -27 -8 118 161 133 202 133 349 0 84 -5 122 -20 163 l-19 52 -45
0 c-26 -1 -68 -9 -96 -19 -49 -18 -208 -81 -212 -85 -6 -5 40 -86 48 -86 5 0
9 -6 9 -14 0 -7 16 -47 35 -89 32 -70 110 -277 121 -322 12 -46 -26 35 -66
145 -50 137 -164 380 -179 380 -12 0 0 -37 24 -74 9 -13 12 -26 8 -29 -5 -3
-22 19 -38 49 -33 61 -44 67 -98 55 -50 -12 -87 -37 -87 -60 0 -10 -3 -21 -7
-25 -5 -4 -8 -11 -8 -14 0 -4 -9 -20 -19 -35 -16 -24 -18 -39 -12 -110 3 -45
9 -95 11 -112 12 -71 -17 22 -34 110 -10 50 -21 99 -25 110 -4 11 0 7 9 -9
l17 -29 32 71 c41 90 50 100 100 112 72 19 71 15 36 78 -18 31 -63 93 -100
137 -37 44 -86 107 -110 140 -24 33 -76 101 -117 152 -40 51 -72 96 -71 100 5
14 -157 205 -243 288 -46 44 -132 120 -191 168 -60 49 -108 91 -108 93 0 6 81
-53 120 -89z m-4597 -108 c12 -7 41 -29 64 -50 23 -21 59 -46 80 -55 31 -13
196 -57 299 -79 12 -3 24 -12 28 -20 3 -9 2 -13 -4 -10 -6 3 -10 -1 -10 -9 0
-9 5 -16 11 -16 6 0 1 -9 -12 -20 -13 -10 -19 -19 -13 -20 5 0 15 5 22 12 17
17 15 -4 -4 -30 -22 -32 -62 -29 -70 6 -17 78 -17 78 -46 34 -22 -32 -24 -42
-14 -51 31 -26 90 -41 160 -41 41 0 78 -4 81 -10 9 -15 -171 -12 -230 4 -27 8
-58 17 -68 21 -32 13 -8 -21 39 -54 49 -36 51 -39 28 -67 -13 -16 -15 -16 -10
-2 7 24 -44 73 -57 55 -5 -7 -6 -4 -2 9 4 16 -2 27 -22 43 -15 11 -22 21 -15
21 9 0 5 11 -11 33 -13 17 -34 52 -46 77 -32 64 -51 83 -67 69 -8 -6 -25 -9
-38 -7 l-25 5 24 -46 c13 -25 27 -58 30 -73 6 -23 3 -27 -24 -33 -44 -10 -88
-33 -95 -51 -4 -11 -10 -12 -25 -4 -11 5 -29 10 -40 10 -10 0 -21 5 -23 11 -6
17 -38 -2 -38 -22 0 -32 -17 -21 -18 12 -1 47 -12 48 -12 1 0 -24 -5 -42 -11
-42 -6 0 -8 7 -5 16 3 8 2 13 -3 10 -11 -7 -21 17 -21 52 0 21 -2 24 -10 12
-8 -13 -10 -13 -10 0 0 8 -10 -4 -21 -25 -29 -53 -32 -174 -6 -224 19 -39 16
-50 -10 -30 -17 13 -17 13 0 -7 23 -28 23 -77 0 -72 -35 7 -102 157 -106 239
-2 43 -4 47 -15 31 -34 -43 13 -220 75 -284 l27 -28 -25 -1 c-13 -1 -31 0 -39
1 -32 4 -83 55 -106 104 -24 51 -24 51 -24 17 0 -18 10 -51 22 -72 20 -37 21
-40 5 -56 -20 -20 -35 -10 -17 12 11 13 10 14 -4 9 -9 -3 -16 -1 -16 5 0 6 -4
11 -10 11 -5 0 -6 -8 -3 -17 6 -16 5 -16 -10 -5 -14 12 -22 11 -52 -8 -19 -12
-32 -26 -29 -32 4 -6 -2 -6 -14 1 -26 14 -32 14 -32 0 0 -5 5 -7 10 -4 24 15
7 -29 -20 -53 -16 -15 -30 -34 -30 -44 0 -9 -4 -20 -10 -23 -14 -9 -12 2 6 41
9 19 23 34 30 34 8 0 14 8 14 17 0 13 -9 9 -35 -17 -19 -18 -32 -37 -29 -41 3
-5 -2 -6 -11 -3 -14 6 -14 8 1 25 12 14 14 23 7 30 -8 8 -13 7 -18 -2 -5 -8
-4 -10 3 -5 7 4 12 2 12 -4 0 -7 -9 -14 -20 -17 -11 -3 -20 -10 -20 -15 0 -5
-8 -8 -17 -6 -10 2 -18 -3 -18 -12 0 -9 -17 -33 -37 -54 -33 -34 -39 -37 -52
-23 -13 13 -13 17 3 33 10 11 15 26 13 33 -3 10 0 12 11 8 11 -4 14 -2 10 9
-5 13 -8 13 -24 -2 -10 -9 -16 -20 -14 -24 3 -4 -2 -13 -10 -20 -8 -7 -15 -9
-15 -4 0 5 -5 2 -10 -6 -8 -12 -10 -11 -10 8 0 12 -4 22 -10 22 -5 0 -10 9
-10 20 0 11 5 20 11 20 5 0 7 -4 4 -10 -3 -5 -1 -10 5 -10 6 0 9 8 6 18 -7 21
86 128 103 118 7 -5 9 -1 4 10 -5 14 -3 16 11 11 9 -4 15 -3 12 2 -7 11 99
112 109 103 5 -4 5 -2 2 5 -4 6 11 25 35 44 24 19 45 36 48 39 5 5 87 72 119
97 9 7 11 13 5 13 -20 0 -200 -152 -328 -278 -309 -304 -591 -687 -770 -1045
-43 -86 -50 -96 -65 -85 -14 11 -14 11 -3 -3 10 -14 7 -29 -19 -90 -17 -41
-32 -75 -34 -77 -1 -1 -8 5 -15 13 -11 13 -11 16 0 13 7 -2 15 3 17 10 3 6 -3
12 -13 12 -17 0 -11 14 7 16 22 3 23 6 4 14 -34 15 -43 11 -38 -12 4 -19 3
-20 -6 -8 -9 13 -11 12 -11 -3 0 -10 -4 -16 -9 -12 -13 8 25 97 112 260 125
236 193 342 371 585 142 195 421 492 591 631 100 82 187 159 179 159 -7 0 -33
-21 -105 -82 -30 -25 -85 -73 -124 -105 -283 -240 -600 -624 -827 -1001 -104
-174 -240 -456 -304 -632 -43 -121 -144 -472 -144 -504 0 -3 7 -6 15 -6 10 0
16 11 17 33 l1 32 4 -31 c2 -18 14 -40 25 -50 20 -18 21 -18 15 -1 -5 12 -3
16 4 11 8 -5 10 4 7 29 -2 20 0 33 4 31 5 -3 13 5 18 18 10 23 10 23 5 -2 -16
-70 -18 -102 -4 -111 14 -9 3 -12 -44 -12 -15 0 -18 -7 -15 -51 2 -33 7 -50
15 -49 6 2 11 -6 10 -16 -4 -53 204 -322 330 -428 32 -26 95 -83 140 -127 67
-64 87 -90 109 -145 15 -36 27 -74 26 -84 0 -9 4 -17 9 -17 5 0 9 -8 7 -17 -2
-11 2 -17 10 -15 8 1 11 -2 8 -7 -4 -5 0 -12 6 -15 7 -4 4 -5 -8 -2 -22 3 -30
-23 -11 -36 6 -3 12 -14 13 -23 1 -9 -1 -14 -4 -10 -4 4 -7 10 -7 13 0 4 -11
17 -25 29 -34 28 -73 108 -101 208 -12 44 -26 84 -30 89 -4 4 -11 -13 -15 -40
-8 -54 13 -187 40 -246 26 -59 -3 -48 -38 14 -16 29 -31 48 -33 42 -2 -6 9
-33 24 -60 22 -39 33 -50 51 -49 12 1 22 -2 22 -7 0 -4 -12 -7 -26 -6 -20 2
-33 15 -56 55 -17 29 -34 56 -39 59 -5 3 -10 20 -10 37 -1 24 -3 26 -6 10 -2
-13 -9 -23 -15 -23 -7 0 -9 36 -6 108 l4 107 -70 -5 c-39 -4 -138 -5 -221 -3
l-150 3 4 58 c4 73 11 81 11 14 l0 -52 105 0 105 0 2 38 1 37 4 -38 4 -38 106
3 c118 3 136 14 81 48 -18 11 -28 20 -22 20 6 0 23 -9 37 -20 28 -23 47 -11
19 12 -44 37 -86 53 -187 72 -11 2 -33 7 -50 10 -26 6 -27 5 -7 -3 23 -11 31
-23 10 -16 -7 2 -53 14 -103 25 -49 12 -99 31 -111 41 -11 11 -24 16 -29 12
-4 -5 -5 -3 -2 3 4 6 18 9 32 7 13 -3 22 -9 20 -14 -9 -13 103 -43 165 -44
152 -3 158 -4 189 -31 17 -14 31 -21 31 -15 0 7 -6 14 -14 17 -25 9 -223 239
-270 312 -25 40 -68 95 -96 124 -50 52 -61 85 -40 118 7 12 10 11 15 -5 4 -11
10 -29 15 -40 7 -17 9 -15 9 11 1 18 -8 43 -21 59 l-22 28 -12 -56 c-21 -89
-54 -302 -69 -432 -7 -66 -13 -108 -14 -92 0 15 -5 27 -11 27 -17 0 -11 -37
11 -74 11 -19 18 -40 15 -45 -3 -5 -1 -11 5 -13 10 -3 32 -89 24 -96 -1 -2
-21 31 -44 72 -23 42 -60 97 -84 124 -23 26 -60 71 -82 100 -46 61 -95 95
-134 94 -14 0 -48 -12 -74 -26 -27 -15 -46 -22 -43 -17 10 16 105 61 130 61
31 0 105 -66 203 -183 42 -51 73 -83 68 -72 -13 29 -11 98 3 103 10 3 10 7 0
20 -10 12 -10 14 0 8 15 -9 16 6 1 21 -19 19 31 344 92 603 174 732 604 1461
1176 1992 90 83 303 257 343 279 14 8 40 27 57 43 32 29 33 29 54 10 l21 -19
-25 -20 c-13 -11 -39 -28 -57 -38 l-33 -18 29 -24 c30 -26 46 -29 79 -15 17 7
16 9 -11 9 -16 1 -38 7 -47 14 -16 11 -1 23 120 104 107 70 258 160 291 172 2
0 13 -4 25 -10z m2185 -438 c127 -44 242 -128 304 -220 l31 -46 -44 41 c-46
43 -140 113 -175 132 -11 6 -72 32 -135 57 -63 26 -118 51 -123 56 -21 19 62
8 142 -20z m-213 -111 c125 -27 271 -101 358 -180 59 -55 107 -123 95 -135 -2
-3 -26 16 -54 40 -48 44 -73 58 -58 33 7 -13 -11 1 -74 57 -45 40 -129 97
-172 117 -90 42 -140 61 -195 73 -49 11 -54 14 -25 14 19 0 76 -8 125 -19z
m-517 -300 c85 -32 190 -88 282 -149 82 -54 232 -196 272 -256 12 -19 3 -13
-25 18 -25 26 -50 47 -56 47 -6 0 -11 4 -11 8 0 12 -65 77 -81 80 -8 2 -25 15
-38 30 -13 15 -20 20 -15 12 6 -12 4 -12 -12 1 -10 9 -47 31 -81 48 -34 17
-104 56 -155 87 -51 31 -111 65 -133 75 -56 26 -15 25 53 -1z m-1847 -26 c8
-5 31 -92 33 -124 1 -19 8 -26 37 -33 48 -11 72 -39 97 -109 l20 -58 -38 0
c-27 0 -42 -6 -49 -17 -5 -10 -20 -19 -33 -20 -66 -7 -98 -16 -98 -29 0 -16
-16 -19 -25 -4 -4 7 -14 5 -27 -4 -22 -16 -48 -11 -48 9 0 6 -8 22 -19 34
l-19 21 -4 -34 c-2 -19 0 -32 4 -30 4 3 8 0 8 -5 0 -6 8 -11 18 -11 14 0 15
-2 2 -10 -13 -8 -12 -11 5 -24 11 -9 26 -16 34 -16 28 0 -11 -30 -58 -44 -34
-9 -49 -10 -56 -2 -5 6 -9 9 -7 7 1 -3 -8 -11 -20 -18 l-23 -14 25 6 c24 6 24
5 6 -9 -10 -9 -23 -13 -28 -10 -11 7 -40 -15 -34 -25 3 -4 0 -13 -5 -21 -7
-11 -8 -6 -4 16 l5 31 -43 -7 c-28 -6 -45 -4 -50 3 -5 7 -6 2 -2 -10 5 -18 2
-23 -13 -23 -21 0 -36 -25 -25 -42 3 -7 1 -8 -5 -4 -7 4 -12 1 -13 -6 0 -10
-2 -10 -6 0 -8 21 -23 13 -23 -12 0 -13 -7 -29 -15 -36 -9 -8 -15 -8 -15 -2 0
6 6 12 13 15 9 3 9 8 -2 18 -12 12 -13 12 -6 0 6 -11 4 -13 -7 -8 -12 4 -14 1
-11 -14 4 -14 0 -19 -13 -19 -16 0 -17 -2 -4 -10 14 -9 7 -15 -14 -11 -5 1 -6
-5 -3 -13 4 -10 -1 -13 -21 -11 -15 2 -32 -4 -39 -14 -12 -15 -13 -15 -7 0 4
14 -3 17 -50 16 -39 -1 -56 -5 -56 -14 0 -7 -4 -13 -10 -13 -5 0 -10 -10 -11
-22 0 -13 -3 -17 -6 -10 -10 26 -31 10 -42 -33 -6 -25 -16 -45 -22 -45 -6 0
-9 7 -5 15 3 8 1 25 -5 37 -9 21 -9 21 -4 -4 4 -21 2 -26 -9 -22 -28 11 8 232
52 324 25 51 102 143 174 208 102 93 187 126 283 110 20 -4 39 1 57 13 26 19
27 19 30 -2 6 -39 34 -47 78 -21 45 25 47 23 53 -43 l3 -40 17 37 c19 41 23
133 7 143 -15 9 -12 36 6 50 14 10 14 15 4 34 -19 37 -6 53 37 45 21 -4 41 -8
44 -10z m5029 -131 c87 -115 109 -147 103 -156 -4 -6 -1 -7 7 -2 10 6 12 2 7
-15 -4 -17 -3 -20 5 -12 9 9 24 -7 60 -61 36 -54 44 -73 33 -75 -8 -2 -15 -7
-15 -10 0 -4 -18 -7 -40 -8 -22 0 -40 1 -40 3 0 9 64 34 76 29 8 -3 14 -1 14
3 0 5 -7 12 -16 15 -8 3 -12 10 -9 16 3 5 1 10 -5 10 -7 0 -9 -7 -6 -15 4 -11
-3 -19 -21 -26 -14 -5 -28 -7 -31 -4 -4 3 3 8 15 11 20 5 20 7 5 23 -10 10
-21 15 -27 11 -5 -4 -20 -6 -32 -5 -18 1 -20 -1 -11 -12 9 -11 8 -18 -4 -30
-15 -14 -16 -14 -15 2 1 10 -4 20 -12 23 -8 2 -11 1 -9 -4 3 -5 -4 -18 -15
-29 l-20 -20 12 22 c6 12 8 29 4 39 -4 12 -3 15 5 10 7 -4 12 -2 12 3 0 6 8
11 18 12 12 0 11 3 -7 10 -13 5 -21 15 -18 22 3 8 -3 14 -14 14 -24 2 -24 -2
3 -27 12 -11 17 -20 12 -20 -6 0 -15 5 -21 11 -21 21 -77 27 -93 10 -8 -9 -22
-17 -30 -19 -9 -2 -6 5 8 18 13 12 21 25 17 28 -3 4 -11 0 -16 -8 -9 -12 -10
-12 -5 3 3 10 6 23 6 28 0 6 4 7 10 4 5 -3 7 0 4 8 -3 8 4 37 16 66 11 28 20
64 20 79 0 34 10 72 19 72 3 -1 22 -21 41 -47z m-1208 -31 c13 -16 29 -42 35
-58 45 -119 46 -121 93 -143 25 -12 54 -21 65 -20 11 0 14 3 7 6 -19 7 -4 23
24 23 14 0 23 -5 22 -12 -2 -7 4 -14 12 -14 8 -1 21 -2 28 -3 6 0 12 -6 12
-12 0 -8 -5 -8 -15 1 -8 7 -15 9 -15 4 0 -16 70 -65 82 -58 6 4 8 3 5 -3 -3
-5 30 -46 74 -92 124 -128 284 -358 341 -491 9 -19 34 -75 56 -125 56 -125
106 -274 132 -391 22 -99 50 -307 49 -354 -1 -23 -2 -23 -9 5 l-8 30 -1 -32
c0 -17 4 -35 9 -38 6 -3 10 -11 10 -16 0 -6 -4 -7 -10 -4 -5 3 -10 1 -10 -4 0
-6 6 -11 13 -11 9 0 8 -3 -2 -9 -10 -7 -12 -23 -7 -65 3 -31 1 -66 -5 -78 -48
-106 -95 -148 -165 -148 -55 0 -96 30 -232 168 -67 69 -114 107 -152 126 -72
34 -164 50 -221 39 -40 -8 -37 -9 36 -9 69 0 88 -4 131 -28 28 -15 78 -55 110
-88 l59 -61 -70 57 c-97 79 -136 96 -222 96 -39 0 -84 -6 -99 -13 -62 -27
-124 -70 -144 -100 -19 -28 -21 -29 -15 -7 10 35 51 74 115 109 30 17 51 31
46 31 -5 0 -37 -15 -70 -34 -62 -35 -98 -66 -102 -89 -3 -20 -44 -103 -44 -91
0 6 7 28 16 49 8 20 13 40 10 43 -4 3 -18 -22 -33 -56 -14 -34 -30 -62 -34
-62 -5 0 -5 11 0 23 7 18 6 24 -5 24 -9 0 -13 -6 -9 -16 4 -12 3 -13 -5 -5
-22 22 28 120 89 177 113 104 228 145 356 128 142 -20 235 -82 344 -228 30
-40 57 -73 60 -73 3 0 20 -12 36 -25 l30 -26 -41 20 c-22 11 -76 53 -119 93
-77 71 -78 72 -41 23 77 -103 88 -116 139 -150 28 -19 63 -35 77 -35 38 0 83
33 121 87 l34 48 -2 133 c-6 455 -196 964 -500 1340 -41 50 -104 119 -140 152
-54 49 -78 63 -146 85 -44 15 -97 35 -117 45 l-37 19 -24 -73 -24 -73 57 -63
c84 -91 146 -236 136 -317 -3 -23 -6 -18 -22 32 -34 113 -83 201 -155 276 -65
68 -69 75 -64 108 8 51 13 51 13 3 0 -23 4 -42 9 -42 13 0 25 74 23 140 -1 48
-35 192 -57 244 -8 17 -6 17 22 2 17 -8 42 -28 55 -44z m-3549 -110 c10 -11
42 -79 71 -150 29 -72 70 -156 91 -187 36 -51 38 -58 25 -78 -37 -59 -45 -85
-45 -152 0 -85 37 -170 91 -211 44 -34 51 -27 19 16 -37 51 -65 134 -64 193
l1 52 13 -62 c16 -75 57 -154 104 -202 l35 -34 -28 -22 c-38 -30 -115 -56
-188 -62 -73 -7 -72 6 1 18 28 4 79 18 113 31 50 18 58 24 38 26 -35 5 -105
65 -136 117 -34 59 -42 138 -20 206 14 43 15 54 4 61 -10 8 -10 9 2 6 8 -2 25
6 36 18 l22 22 -28 27 -27 26 -30 -28 c-46 -43 -170 -143 -178 -143 -3 0 26
28 66 63 40 34 85 74 101 88 l28 26 -50 89 c-27 49 -50 95 -50 102 0 34 -213
-171 -308 -296 -73 -95 -189 -291 -246 -414 -95 -203 -140 -365 -157 -561 -13
-156 -8 -187 48 -327 27 -67 47 -98 93 -146 33 -34 61 -60 62 -58 2 2 4 -6 4
-16 0 -13 -4 -16 -10 -10 -21 21 -23 8 -5 -31 11 -22 18 -46 16 -52 -2 -6 -16
22 -32 63 -19 48 -43 88 -66 112 -43 42 -85 111 -105 171 l-14 42 4 -59 c6
-79 43 -151 111 -215 63 -60 65 -77 6 -38 -52 34 -92 86 -136 172 l-35 70 0
150 c0 91 6 186 16 240 14 83 65 297 80 341 4 11 -7 1 -23 -21 -37 -49 -57
-67 -105 -93 -21 -10 -36 -21 -34 -23 3 -2 -8 -5 -22 -6 -15 -1 -58 -6 -97
-11 -68 -10 -72 -9 -134 21 -36 18 -85 52 -110 76 -114 109 -188 151 -265 151
-33 0 -48 -6 -69 -28 -30 -31 -47 -79 -47 -129 0 -18 -5 -33 -11 -33 -6 0 -8
8 -5 18 3 9 8 40 12 67 13 96 54 131 142 123 68 -7 115 -33 197 -109 69 -64
130 -100 217 -128 47 -16 142 0 216 36 74 35 145 124 227 286 74 144 118 222
174 307 48 72 219 271 270 314 22 18 47 41 56 49 8 9 24 19 35 22 11 3 20 12
20 19 0 13 -22 87 -35 120 -7 16 -5 17 11 8 11 -6 27 -19 37 -30z m-1151 -255
c3 -6 -7 -35 -22 -64 -27 -51 -30 -83 -8 -83 5 0 2 -7 -7 -16 -8 -9 -14 -24
-11 -33 2 -9 8 -27 11 -40 5 -16 4 -21 -4 -16 -8 4 -10 -1 -6 -17 4 -17 1 -29
-12 -38 -15 -12 -16 -12 -5 0 16 19 15 33 -2 27 -8 -3 -17 1 -20 9 -3 9 1 14
11 14 14 0 14 3 5 12 -10 10 -15 10 -22 -2 -6 -8 -8 -21 -5 -28 3 -9 -1 -11
-15 -7 -14 4 -20 2 -18 -7 2 -7 -5 -12 -14 -12 -11 1 -18 -5 -18 -15 -1 -15
-2 -14 -14 1 -11 15 -14 14 -30 -13 -9 -16 -14 -29 -9 -29 4 0 3 -4 -3 -8 -6
-4 -16 -20 -23 -37 -11 -29 -11 -29 -6 10 4 25 2 35 -3 27 -7 -11 -10 -10 -15
3 -4 10 -3 14 4 9 7 -4 9 0 5 12 -3 11 -1 26 5 34 10 13 10 13 6 -1 -3 -9 -1
-22 5 -30 8 -11 9 -11 5 3 -3 9 -1 18 5 20 7 3 9 12 5 21 -11 29 -32 9 -67
-63 -19 -38 -35 -68 -37 -66 -8 7 156 328 211 414 20 31 23 33 66 27 25 -4 48
-12 52 -18z m4631 -66 c16 -15 41 -48 55 -76 25 -47 27 -58 27 -180 -1 -118
-3 -135 -26 -185 -15 -31 -52 -83 -83 -115 l-58 -60 29 55 c16 30 44 78 61
105 91 144 75 338 -39 470 -34 40 -19 34 34 -14z m1329 -58 c26 -9 48 -21 48
-25 0 -11 -5 -10 -48 8 -20 8 -66 17 -102 19 -62 4 -63 4 -20 -5 110 -24 170
-63 235 -154 52 -73 71 -117 85 -197 21 -114 -19 -270 -81 -324 -18 -15 -20
-15 -10 -2 7 9 10 17 6 17 -4 0 2 8 13 18 38 32 57 108 57 222 0 97 -2 110
-31 170 -41 84 -89 138 -155 175 -50 28 -62 30 -154 30 -89 0 -106 -3 -150
-26 -88 -46 -132 -130 -112 -211 9 -35 44 -68 72 -68 25 0 123 43 166 73 13
10 28 17 33 17 12 0 -73 -62 -88 -64 -6 -1 -22 -9 -36 -19 -14 -9 -43 -17 -66
-17 -35 0 -47 6 -72 35 -37 41 -49 92 -33 137 7 21 8 29 1 22 -6 -6 -16 -36
-22 -67 -10 -48 -9 -70 5 -139 15 -69 27 -96 82 -179 36 -53 79 -109 97 -125
42 -35 126 -73 186 -85 46 -8 45 -8 -15 -5 -151 9 -293 162 -363 390 -30 99
-28 134 11 211 27 52 54 81 109 117 40 26 42 29 15 22 -16 -3 -68 -22 -115
-41 -118 -48 -124 -49 -50 -9 212 114 346 135 502 79z m-7129 -264 c-144 -38
-283 -153 -352 -292 -62 -124 -72 -177 -68 -347 3 -96 2 -114 -2 -55 -5 70 -8
82 -13 55 -3 -19 -4 11 -2 68 3 56 14 136 24 178 61 239 249 411 450 412 27 0
18 -4 -37 -19z m7558 -25 c2 3 4 -8 5 -22 0 -15 4 -38 8 -52 6 -20 5 -22 -4
-10 -8 12 -9 7 -5 -20 14 -82 13 -135 -3 -152 -8 -10 -12 -18 -8 -18 4 0 2 -9
-4 -20 -15 -27 2 -33 63 -21 26 4 47 5 47 1 0 -8 -49 -20 -89 -20 -19 -1 -36
-13 -61 -45 -34 -43 -114 -109 -135 -111 -5 0 -27 -8 -49 -17 -21 -9 -46 -17
-55 -17 -9 1 6 9 32 20 52 20 155 93 164 116 3 8 9 12 13 9 4 -3 14 3 21 12
12 15 12 16 -5 10 -16 -6 -17 -5 -7 7 7 8 10 20 6 26 -4 6 -1 9 7 8 7 -2 21
14 31 35 23 46 24 168 3 277 -7 31 -6 33 7 18 8 -10 16 -16 18 -14z m-7451 7
c0 -5 -28 -14 -62 -20 -139 -24 -290 -133 -355 -256 -32 -62 -63 -163 -63
-210 0 -14 -4 -24 -9 -20 -5 3 -12 -5 -14 -17 -3 -18 -5 -16 -6 8 -2 53 18
136 50 204 75 160 200 263 369 305 67 16 90 18 90 6z m4858 -33 c-14 -18 -33
-49 -42 -68 -16 -34 -16 -34 1 -10 54 75 120 115 87 52 -7 -15 -13 -40 -13
-57 l1 -30 7 31 c11 45 19 54 47 54 20 0 24 -4 20 -17 -37 -123 -43 -180 -25
-265 15 -69 30 -98 94 -175 29 -36 60 -86 68 -111 13 -37 13 -43 2 -28 -14 18
-45 16 -45 -3 0 -6 7 -8 15 -5 10 4 15 0 15 -14 0 -11 7 -23 16 -26 9 -4 14
-9 11 -13 -4 -3 -12 -1 -19 4 -7 6 -24 14 -38 18 -18 5 -14 -1 15 -20 22 -15
31 -24 20 -20 -48 16 -155 27 -217 23 -59 -5 -90 -16 -258 -97 -182 -87 -247
-112 -188 -73 l27 18 -30 18 c-16 10 -37 15 -45 12 -11 -4 -12 -2 -4 13 5 11
15 21 22 24 10 3 10 7 1 18 -8 10 -9 27 -3 54 6 28 5 42 -3 47 -9 6 -9 8 1 8
6 0 12 7 12 15 0 8 4 15 8 15 4 0 16 15 26 33 l18 32 -27 -33 c-22 -27 -30
-31 -41 -21 -9 7 -11 15 -6 18 6 3 18 20 28 37 11 18 44 67 74 110 67 97 72
105 110 177 41 78 30 72 -19 -10 -58 -99 -153 -235 -173 -247 -9 -6 -21 -6
-25 -2 -4 5 -2 11 4 13 11 4 103 138 132 192 22 40 2 21 -43 -41 -47 -67 -116
-139 -116 -122 0 6 16 29 36 52 38 45 78 100 149 205 25 37 47 67 49 67 3 0
-11 -30 -31 -66 -43 -82 -29 -75 32 14 73 108 91 127 60 65 -14 -29 -23 -53
-20 -53 2 0 18 26 34 58 26 51 120 148 105 107 -7 -17 79 36 92 56 3 6 8 8 11
5 3 -3 -5 -20 -19 -38z m-2260 -314 c44 -84 46 -93 25 -78 -14 8 -26 14 -27
12 -2 -2 -16 -34 -31 -73 -23 -58 -29 -89 -33 -180 -5 -134 16 -247 82 -440
24 -71 41 -134 38 -139 -6 -11 -83 185 -119 304 -20 65 -27 115 -30 211 -6
136 5 197 51 288 l23 44 -36 69 c-29 57 -33 71 -21 78 8 5 18 7 22 4 4 -3 29
-47 56 -100z m3634 -27 c-11 -12 -20 -24 -20 -27 0 -3 -17 -33 -39 -66 -39
-61 -40 -61 -66 -47 -18 9 -33 11 -45 4 -31 -16 -122 -40 -122 -32 0 5 34 24
75 42 41 18 75 36 75 41 0 11 0 11 -66 -21 -32 -15 -70 -32 -84 -36 -14 -4
-47 -19 -73 -32 -27 -13 -51 -23 -53 -20 -5 5 140 109 181 130 22 11 36 12 49
5 16 -9 16 -8 7 10 -6 12 -11 23 -11 26 0 10 36 6 47 -5 8 -8 32 -1 84 24 41
19 76 32 78 30 3 -1 -5 -13 -17 -26z m-580 -60 c21 -48 23 -64 22 -217 -1
-177 -13 -255 -73 -470 -33 -118 -34 -114 47 -145 23 -9 42 -21 42 -25 0 -5
-28 4 -62 21 -76 36 -75 25 -25 244 69 305 72 516 8 609 -18 26 -29 51 -26 57
11 17 41 -17 67 -74z m-3812 -184 c0 -5 -16 -19 -34 -31 -82 -56 -155 -223
-142 -324 7 -54 55 -192 64 -183 3 3 31 -20 62 -50 54 -51 127 -92 194 -109
23 -6 27 -9 16 -16 -12 -7 -9 -11 10 -19 14 -5 21 -10 15 -10 -22 -2 -94 32
-88 42 3 5 1 7 -5 3 -20 -12 -63 14 -132 84 -38 39 -70 67 -70 62 0 -10 100
-137 109 -137 16 -2 124 -64 111 -64 -8 -1 -39 12 -69 27 -90 45 -185 178
-217 304 -36 140 5 280 112 377 56 52 64 57 64 44z m3676 -128 c-20 -43 -23
-61 -16 -81 24 -62 -17 -266 -73 -362 -11 -18 -17 -35 -15 -37 6 -6 77 122 84
152 8 30 24 40 17 11 -13 -58 -35 -118 -43 -113 -6 4 -21 -29 -24 -56 -1 -4
-13 -26 -28 -49 -16 -23 -28 -45 -28 -49 0 -7 -53 -41 -64 -41 -12 0 -6 107 9
163 20 76 49 134 91 182 l35 40 -15 -38 c-9 -21 -24 -50 -34 -65 -26 -36 -64
-113 -60 -118 8 -7 90 125 110 178 26 69 22 164 -9 206 l-22 29 24 36 c23 33
76 79 84 72 1 -2 -8 -29 -23 -60z m1343 -200 c1 -125 -44 -258 -124 -362 -19
-25 -32 -51 -28 -57 3 -6 3 -8 -1 -4 -5 4 -18 -4 -30 -17 -22 -25 -246 -179
-246 -170 0 3 51 43 113 88 99 74 173 139 127 112 -8 -5 -27 -18 -42 -28 -77
-56 -216 17 -348 183 -41 52 -38 50 41 -26 121 -116 184 -154 254 -154 41 0
120 59 163 122 76 112 102 198 104 353 1 86 3 100 9 65 4 -25 8 -72 8 -105z
m-1760 -116 c-6 -12 -4 -19 6 -22 9 -4 12 -1 8 9 -5 14 -3 14 15 3 11 -7 19
-16 16 -20 -2 -4 6 -20 18 -35 l22 -29 -28 25 -27 25 5 -29 c3 -16 13 -38 23
-50 10 -11 11 -15 3 -8 -8 6 -17 12 -20 12 -13 0 -7 -35 9 -54 16 -19 16 -19
-14 0 -22 15 -28 16 -23 4 22 -55 22 -53 0 -39 -12 7 -25 10 -29 6 -4 -5 -1
-12 6 -17 30 -18 -147 -174 -317 -281 l-70 -44 -7 -71 c-3 -39 -4 -86 -1 -105
3 -19 2 -70 -3 -114 l-8 -80 -2 120 -1 120 -131 68 c-90 46 -129 62 -123 50
14 -32 17 -172 4 -188 -6 -8 -9 -24 -5 -37 5 -18 4 -20 -4 -8 -6 8 -8 27 -5
42 7 35 -12 172 -28 198 -26 41 -122 34 -172 -13 -26 -25 -62 -95 -53 -104 3
-3 13 2 22 11 30 30 41 20 54 -46 l9 -43 1 58 c1 55 2 58 23 55 42 -6 74 -112
35 -116 -31 -2 -85 -21 -119 -41 -43 -26 -90 -30 -114 -10 -22 18 -44 71 -44
104 0 36 14 31 29 -10 19 -53 28 -42 20 23 -4 31 -7 165 -6 297 1 211 2 223 7
100 l6 -140 3 125 c2 69 5 130 6 135 2 6 3 17 4 25 1 8 5 21 10 29 7 11 14 9
34 -11 34 -34 53 -73 66 -138 6 -30 15 -75 20 -100 9 -44 9 -43 11 30 2 74 2
75 15 40 l13 -35 2 35 c2 22 4 28 7 15 11 -43 23 -38 23 11 0 27 6 57 14 66
12 16 15 16 46 -4 25 -15 31 -16 21 -4 -13 15 -2 23 13 9 3 -4 14 -8 24 -8 9
-1 35 -5 57 -9 l40 -7 -35 20 c-44 25 -41 25 45 2 117 -31 217 -38 133 -9
l-32 11 60 13 c32 6 90 29 128 50 64 35 67 38 50 52 -18 14 -18 14 0 8 18 -6
44 18 73 68 15 25 17 3 3 -25 -6 -10 -8 -19 -6 -19 3 0 15 17 26 38 l21 37 -5
-35 -4 -35 15 38 c17 40 39 52 27 15 -14 -45 -14 -53 -2 -28 26 51 54 54 33 3
-8 -20 -14 -38 -11 -40 2 -2 9 10 16 27 7 16 17 30 22 30 6 0 8 9 5 19 -4 17
-2 18 13 8 14 -8 16 -16 9 -28z m992 -37 c31 -16 68 -46 86 -70 43 -56 73
-157 73 -241 0 -68 -21 -166 -39 -184 -13 -13 -14 -19 3 77 25 139 -6 260 -88
341 -75 75 -144 92 -219 54 -42 -22 -147 -121 -167 -159 -10 -18 -7 -22 27
-36 112 -47 332 -197 406 -277 79 -86 77 -96 -4 -15 -90 90 -210 177 -351 253
-49 26 -90 51 -94 56 -3 5 -9 7 -14 4 -20 -12 44 87 83 129 93 100 194 123
298 68z m-3803 -106 c32 -16 82 -83 82 -109 0 -9 7 -20 16 -25 12 -7 3 -17
-46 -50 -33 -23 -65 -42 -69 -42 -5 0 -12 -7 -15 -16 -5 -13 -3 -14 7 -8 22
15 -33 -29 -85 -67 -26 -20 -82 -66 -123 -103 -63 -56 -82 -82 -116 -152 -47
-96 -64 -114 -53 -57 12 71 75 174 154 252 41 41 62 66 45 54 -84 -59 -146
-135 -271 -335 -18 -28 -43 -46 -106 -77 -46 -22 -126 -65 -178 -95 -52 -31
-101 -56 -109 -56 -18 0 -21 -3 64 56 39 26 119 73 180 104 l109 55 64 105
c56 93 159 217 170 205 2 -2 21 11 41 30 20 19 39 35 44 35 4 0 44 24 90 53
45 29 105 66 134 81 l52 29 -15 36 c-19 48 -77 101 -111 102 -67 2 -103 -5
-187 -37 -48 -19 -95 -34 -105 -34 -17 1 141 66 194 81 39 10 108 3 143 -15z
m3312 -186 c164 -61 299 -132 415 -218 80 -60 125 -103 125 -120 0 -7 -19 -36
-42 -64 l-43 -50 30 -25 c124 -104 225 -196 225 -204 0 -5 -44 -41 -97 -80
-106 -78 -146 -111 -240 -201 -34 -32 -65 -58 -70 -57 -20 4 -30 -3 -47 -33
l-19 -33 33 30 33 30 -28 -38 c-26 -35 -29 -37 -39 -20 -6 10 -11 25 -13 33
-2 18 24 56 34 47 3 -4 -2 -16 -12 -27 -11 -12 -13 -20 -6 -20 7 0 19 16 27
35 14 35 50 52 37 18 -6 -16 -5 -17 11 -3 11 8 14 16 7 18 -6 2 -11 10 -11 18
0 9 4 13 9 10 13 -9 23 25 11 39 -8 9 -1 21 25 44 20 17 39 31 43 31 4 0 -8
-12 -25 -26 -18 -14 -33 -33 -33 -42 0 -10 25 7 68 49 37 36 79 75 93 85 15
11 50 41 78 66 l51 46 -100 98 c-97 94 -100 99 -95 133 3 19 12 43 21 52 12
13 12 19 3 25 -8 4 -10 3 -5 -4 5 -8 1 -10 -10 -5 -11 4 -13 8 -6 11 19 6 6
18 -68 67 -39 24 -70 47 -70 50 0 4 6 3 13 -1 33 -20 116 -77 151 -104 38 -29
56 -31 56 -5 0 16 -70 79 -157 141 -86 61 -186 114 -333 174 -69 28 -129 56
-135 62 -7 8 -4 9 10 4 11 -4 54 -20 95 -36z m1045 -740 c-3 -5 -65 -40 -137
-77 -231 -119 -402 -246 -583 -434 -110 -114 -273 -309 -372 -444 -40 -55 -80
-109 -88 -120 -15 -19 -15 -19 -4 5 16 34 99 154 146 212 21 26 83 102 137
170 131 161 358 386 476 471 52 37 167 104 255 147 160 80 181 88 170 70z
m-4780 -147 c95 -48 191 -122 321 -250 119 -118 272 -285 319 -348 17 -22 70
-91 118 -154 79 -103 136 -191 122 -191 -2 0 -13 17 -24 38 -27 51 -267 350
-369 458 -232 247 -464 428 -633 494 -30 12 -58 26 -64 31 -16 16 133 -39 210
-78z m5234 -138 c169 -56 336 -165 391 -254 16 -26 32 -41 46 -41 63 -1 121
-31 181 -92 97 -101 118 -164 66 -192 -16 -8 -39 -15 -53 -16 -54 -5 -68 0
-72 24 -4 22 -1 24 56 30 33 3 64 10 68 14 10 10 -41 46 -120 86 -67 34 -114
76 -146 130 -63 107 -231 225 -419 293 l-122 45 -185 -4 c-125 -3 -193 -9
-210 -17 -19 -11 -22 -11 -13 -1 28 30 106 40 264 36 148 -4 162 -6 268 -41z
m-262 -234 c7 -20 20 -31 42 -36 42 -9 40 -25 -4 -25 -31 0 -35 -3 -41 -36 -5
-26 -3 -39 7 -45 10 -6 11 -9 2 -9 -9 0 -13 -19 -13 -60 0 -40 4 -62 13 -64
13 -3 116 -36 133 -43 6 -2 17 10 24 26 7 17 17 31 22 31 18 0 20 -31 4 -55
-16 -24 -16 -26 10 -37 22 -10 31 -9 56 5 36 21 48 15 25 -11 -22 -24 -21 -54
2 -83 15 -19 21 -21 33 -11 13 10 15 8 11 -12 -7 -34 15 -96 33 -96 13 0 13
-3 -1 -17 -14 -14 -17 -31 -13 -95 3 -43 1 -78 -4 -78 -4 0 -8 -12 -8 -27 0
-16 -7 -37 -16 -48 -13 -18 -14 -17 -8 13 7 37 -2 42 -17 10 -8 -20 -9 -19 -5
9 3 18 1 35 -4 38 -6 3 -10 -2 -10 -12 0 -10 -5 -25 -10 -33 -6 -10 -8 6 -5
45 2 33 2 49 -1 35 -11 -60 -27 -103 -47 -127 -52 -60 -134 -97 -226 -102 -19
-1 -37 -3 -39 -6 -2 -2 -25 3 -50 11 -26 7 -56 14 -67 14 -31 0 -95 62 -89 86
3 12 -1 26 -12 35 -16 13 -16 12 -6 -8 16 -30 15 -38 -3 -23 -8 7 -15 19 -15
27 0 8 -7 22 -16 31 -10 10 -12 18 -6 20 6 2 8 11 5 19 -6 14 -8 14 -14 -3 -7
-17 -8 -17 -8 -1 -1 10 -5 16 -10 12 -6 -3 -1 -21 11 -41 11 -19 19 -37 17
-39 -9 -8 -49 63 -54 95 -4 30 -3 32 5 10 7 -19 8 -13 4 25 -3 28 -8 61 -12
75 -5 20 -7 16 -13 -25 l-7 -50 3 55 c2 30 6 71 11 90 4 19 7 47 8 61 1 18 6
25 17 22 10 -3 24 8 37 28 l21 34 -25 32 c-14 18 -20 33 -15 33 17 0 26 -4 24
-11 -1 -3 9 -12 23 -19 21 -12 27 -11 49 10 l24 23 -19 27 c-20 28 -20 28 0
33 11 3 18 2 15 -3 -9 -15 34 -43 57 -37 33 9 66 37 50 43 -16 7 -36 44 -23
44 5 0 18 -13 28 -30 13 -22 25 -30 45 -30 28 0 28 1 28 65 0 55 -3 65 -17 66
-17 1 -17 2 0 6 13 3 17 15 17 45 l0 40 -77 -6 c-69 -6 -75 -5 -57 9 10 8 31
15 46 15 42 0 72 15 87 44 18 33 24 33 38 -3z m-5259 -71 c82 -14 163 -44 198
-76 l29 -26 -42 21 c-134 67 -338 69 -466 5 -64 -31 -124 -82 -166 -138 -19
-25 -37 -44 -39 -41 -7 6 66 102 95 125 14 11 20 20 14 20 -7 0 -35 -24 -64
-52 -28 -29 -43 -43 -33 -31 18 22 18 23 -5 44 l-24 21 25 -15 c24 -14 27 -13
69 24 59 52 158 100 239 115 87 15 96 16 170 4z m47 -289 c39 -19 66 -40 73
-56 18 -39 15 -40 -14 -5 -15 17 -33 29 -40 26 -7 -3 -16 -1 -19 4 -11 18 -35
11 -28 -7 5 -14 1 -13 -16 5 -46 47 -173 19 -243 -54 -23 -24 -43 -42 -46 -40
-2 3 43 76 84 134 1 2 20 10 41 18 55 21 134 11 208 -25z m3885 -206 c-19 -23
4 -44 46 -40 37 3 47 -9 13 -18 -32 -8 -22 -51 13 -55 35 -4 53 26 33 54 -11
17 -11 20 5 20 11 0 16 -5 12 -15 -3 -8 -1 -12 5 -8 11 7 23 -13 23 -39 0 -7
-13 -26 -30 -41 -16 -14 -30 -31 -30 -38 0 -6 -12 -23 -27 -37 -21 -20 -35
-25 -55 -21 -37 7 -62 47 -54 85 5 26 4 29 -9 18 -8 -7 -22 -10 -30 -6 -9 3
-13 2 -10 -4 11 -17 -7 -11 -21 8 -17 21 -18 64 -2 80 7 7 23 12 37 12 21 0
23 -2 9 -12 -25 -21 -29 -47 -8 -58 13 -7 21 -7 25 0 4 6 10 8 14 5 5 -2 17 2
27 10 18 14 18 15 -4 33 -22 17 -22 19 -7 50 9 18 21 32 27 32 6 0 6 -6 -2
-15z m-2786 -33 c33 7 33 -5 1 -26 -35 -23 -23 -49 21 -44 18 2 30 0 28 -4 -3
-4 0 -8 5 -8 16 0 13 32 -4 58 -15 20 -15 21 2 15 23 -8 53 -33 53 -45 0 -5
-12 -27 -27 -51 -16 -23 -29 -46 -29 -52 -1 -5 -5 -25 -9 -44 -8 -33 -9 -34
-17 -11 -6 16 -5 26 3 31 9 5 8 14 -5 33 -16 25 -26 30 -53 27 -19 -2 -26 19
-11 36 9 13 6 12 -14 -2 -23 -18 -24 -22 -12 -36 8 -8 14 -21 14 -27 0 -7 7
-12 15 -12 8 0 15 -5 15 -11 0 -6 -7 -9 -15 -6 -8 4 -17 1 -21 -4 -3 -6 -17
-9 -30 -6 -13 2 -24 0 -24 -4 0 -5 5 -9 10 -9 6 0 10 -8 9 -17 0 -11 -3 -13
-6 -5 -2 6 -11 12 -20 12 -10 0 -12 6 -7 23 9 30 10 30 31 19 10 -5 23 -7 29
-5 17 6 5 43 -15 44 -24 2 -24 2 -50 -6 -16 -5 -21 -4 -17 4 4 6 4 11 -1 11
-4 0 -14 19 -21 41 -18 57 -1 77 68 80 8 0 22 -1 30 -3 11 -2 14 4 12 22 l-3
25 19 -24 c14 -18 26 -23 46 -19z m4891 -297 c-19 -60 -83 -180 -130 -243 -48
-62 -164 -168 -244 -221 -76 -52 -239 -114 -340 -131 -73 -12 -176 -8 -251 9
-21 5 17 6 95 3 145 -5 230 11 371 69 202 84 400 289 480 496 31 82 40 91 19
18z m-6772 -74 l25 -29 -66 -17 c-70 -17 -116 -41 -147 -75 -26 -29 -35 -25
-35 15 0 24 9 45 32 71 61 70 146 85 191 35z m3352 -119 c76 -38 135 -106 135
-154 -1 -21 -2 -21 -11 -5 -5 9 -7 22 -3 29 4 6 3 8 -3 5 -5 -4 -23 8 -39 25
-69 73 -192 99 -276 58 -49 -24 -54 -24 -39 -7 6 8 8 16 5 20 -8 8 54 39 96
48 43 8 95 1 135 -19z m1 -64 c53 -24 100 -93 89 -130 -5 -18 -4 -20 4 -8 9
13 11 13 11 -2 0 -10 -7 -18 -15 -18 -8 0 -15 -8 -15 -17 0 -15 -4 -13 -20 7
-11 14 -20 21 -20 15 -1 -5 -8 2 -16 18 -17 32 -39 35 -54 7 -12 -23 -40 -27
-40 -6 0 21 -66 59 -90 51 -11 -4 -20 -2 -20 4 0 6 5 11 10 11 18 0 10 16 -9
17 -29 2 -20 -23 25 -64 33 -32 36 -37 20 -41 -13 -3 -28 7 -45 29 -14 19 -27
37 -27 41 -1 5 -2 13 -3 20 0 6 -8 3 -16 -8 -8 -10 -15 -15 -15 -10 0 5 -7 2
-16 -5 -15 -12 -16 -11 -9 11 11 36 44 70 90 92 48 23 115 18 181 -14z m1254
-293 c100 -24 130 -35 130 -51 0 -8 5 -14 11 -14 5 0 7 5 3 11 -3 6 7 4 24 -5
41 -21 117 -108 148 -170 14 -28 33 -55 41 -60 12 -7 13 -10 2 -17 -19 -12
-24 -6 -63 74 -19 40 -55 93 -81 120 -57 57 -77 63 -23 7 44 -47 82 -116 72
-132 -4 -6 -3 -8 3 -5 10 6 26 -38 38 -105 5 -23 3 -38 -3 -38 -8 0 -18 29
-26 75 -1 6 -6 19 -11 30 -28 67 -34 88 -30 96 3 4 -20 34 -52 67 -79 79 -151
107 -280 107 -50 0 -90 1 -89 2 1 2 27 7 57 12 30 5 56 9 59 10 3 0 34 -6 70
-14z m53 -68 c63 -29 118 -67 96 -67 -7 0 3 -14 23 -31 52 -42 98 -148 78
-179 -7 -11 -10 -6 -10 20 0 42 -30 103 -73 148 -31 32 -61 46 -37 17 10 -12
10 -18 -1 -32 -9 -11 -10 -14 -2 -9 7 4 21 2 30 -4 16 -10 16 -11 1 -6 -15 4
-15 1 3 -34 12 -22 22 -40 23 -40 6 0 -1 37 -9 50 -5 10 -1 9 12 -3 12 -10 20
-26 18 -35 -1 -9 4 -25 13 -35 8 -9 12 -20 9 -23 -3 -4 -2 -14 2 -23 5 -9 12
-42 15 -74 4 -45 2 -57 -10 -57 -9 0 -14 -11 -14 -32 0 -18 -7 -42 -15 -52 -8
-11 -15 -16 -15 -11 0 6 -8 -5 -17 -22 -20 -36 -104 -133 -116 -133 -4 0 0 12
9 26 17 25 17 26 -2 22 -15 -2 -18 2 -17 20 2 14 -1 21 -8 17 -6 -4 -7 -19 -4
-37 5 -20 4 -28 -3 -24 -6 3 -16 1 -24 -6 -7 -7 -31 -14 -53 -15 -37 -2 -39
-1 -21 12 16 12 17 17 7 28 -10 10 -12 9 -9 -3 2 -9 -6 -16 -19 -18 -13 -2
-23 1 -23 7 0 6 -7 11 -15 11 -26 0 -16 15 10 16 17 1 25 -3 25 -14 0 -13 3
-12 15 4 8 10 15 16 15 12 0 -14 96 34 127 64 40 38 84 136 85 187 1 88 -54
192 -131 245 -37 26 -51 30 -114 30 -86 0 -138 -16 -193 -58 -46 -34 -93 -123
-95 -179 -2 -27 -2 -28 -6 -7 -3 14 -9 29 -14 35 -12 12 -12 28 0 21 5 -3 14
8 20 26 15 41 14 61 -1 52 -7 -4 -10 -4 -6 0 3 4 9 6 12 4 3 -1 20 18 39 45
18 26 37 44 40 40 4 -3 7 -1 7 6 0 6 6 11 13 10 36 -4 38 3 10 30 l-31 29 23
10 c23 11 35 7 35 -11 0 -5 -7 -7 -15 -3 -19 7 -19 1 1 -18 8 -9 23 -16 32
-16 12 0 13 3 4 12 -17 17 -15 33 2 19 8 -7 30 -9 52 -6 22 3 44 6 50 7 11 1
16 27 5 26 -18 -2 -31 3 -31 12 0 9 38 6 94 -7 11 -2 27 -5 34 -5 6 -1 12 -5
12 -10 0 -5 5 -6 10 -3 7 4 9 -2 5 -17 -5 -20 2 -26 47 -47 29 -14 56 -27 61
-29 4 -2 7 0 7 5 0 12 -69 55 -79 48 -5 -2 -11 4 -14 15 -4 17 -2 18 16 9 12
-7 30 -19 40 -27 13 -12 20 -13 27 -4 6 7 7 10 4 8 -3 -3 -24 9 -47 25 -50 36
-124 59 -194 59 -60 0 -66 -8 -25 -32 24 -15 25 -17 7 -18 -12 0 -27 6 -34 13
-11 10 -13 9 -8 -5 4 -10 2 -18 -3 -18 -6 0 -10 5 -10 10 0 6 -11 10 -25 10
-14 0 -25 5 -25 10 0 6 14 10 30 10 21 0 30 5 30 16 0 28 159 14 233 -19z
m-2642 -40 c-2 -41 -1 -43 36 -56 56 -20 109 -58 139 -100 25 -34 24 -33 -22
10 -27 26 -60 52 -74 58 -25 12 -25 12 -5 -7 11 -10 38 -38 60 -63 l40 -44
-51 48 c-35 34 -64 51 -94 58 -54 12 -65 4 -13 -10 26 -7 55 -27 82 -56 50
-53 44 -59 -10 -11 -46 42 -107 60 -173 51 -57 -7 -141 -47 -158 -75 -15 -24
-28 -26 -28 -5 0 8 4 15 9 15 5 0 13 9 16 20 6 18 78 68 107 74 7 2 20 6 28 9
8 3 22 8 30 10 9 3 6 6 -8 6 -13 1 -37 -6 -53 -15 -17 -8 -37 -13 -45 -10 -8
3 -34 -19 -66 -59 -29 -35 -57 -64 -62 -64 -5 -1 22 33 59 74 73 82 77 100 6
33 -28 -27 -36 -32 -23 -15 29 39 70 70 82 62 6 -4 8 -11 5 -16 -9 -14 2 -11
45 11 41 21 48 37 30 70 -7 13 -7 21 2 26 7 4 8 3 4 -5 -14 -23 25 -24 47 -1
13 14 22 19 25 12 6 -18 22 -14 22 5 0 9 3 13 7 9 4 -4 6 -26 4 -49z m2552
-113 c42 -21 85 -62 104 -99 20 -36 23 -167 5 -173 -7 -2 -9 -8 -6 -13 18 -30
-114 -119 -177 -119 -61 0 -180 70 -179 104 0 6 14 -4 31 -22 35 -39 81 -60
135 -63 51 -2 166 43 149 59 -2 3 -13 -1 -22 -9 -10 -7 -4 2 14 20 58 59 59
153 2 232 -13 18 -18 29 -11 25 7 -4 12 -2 12 3 0 6 -7 11 -15 11 -8 0 -15 4
-15 8 0 12 -68 34 -105 34 -66 0 -132 -38 -160 -92 -16 -31 -24 -147 -11 -168
4 -6 3 -12 -3 -12 -5 0 -12 9 -15 20 -3 11 -9 30 -12 41 -4 14 -2 19 5 15 6
-4 11 0 11 9 0 9 -5 13 -10 10 -7 -4 -8 3 -4 22 11 48 32 93 43 93 6 0 11 6
11 13 0 14 47 45 88 57 45 14 101 11 135 -6z m-1118 -14 c13 -21 23 -70 15
-70 -4 0 -11 11 -14 25 -8 33 -49 34 -71 3 -15 -23 -15 -23 27 -31 203 -37
328 -88 481 -198 93 -67 158 -150 172 -222 2 -10 -32 16 -78 59 -185 172 -308
242 -509 291 -110 27 -394 24 -501 -5 -227 -62 -482 -275 -592 -496 -57 -115
-95 -282 -95 -418 0 -50 -2 -89 -5 -86 -3 3 -6 54 -6 114 -1 83 4 128 21 188
16 57 19 81 11 89 -16 16 -44 -15 -58 -66 -10 -38 -11 -39 -12 -12 -1 36 79
206 142 302 79 121 187 219 312 284 42 22 91 50 108 62 59 43 222 104 301 113
31 4 56 10 56 13 0 3 26 5 57 3 51 -3 56 -2 40 10 -20 15 -14 48 9 48 9 0 14
-11 14 -30 0 -28 2 -30 40 -30 34 0 46 6 71 35 31 35 53 44 64 25z m-185 -340
c0 -69 3 -82 20 -92 13 -8 18 -19 14 -33 -5 -19 1 -23 59 -33 87 -16 97 -15
97 7 0 30 16 33 28 5 13 -26 56 -48 80 -39 10 3 12 0 8 -10 -11 -30 62 -73 79
-45 12 19 25 10 25 -18 0 -16 6 -37 14 -47 11 -16 17 -17 29 -7 13 11 47 7 47
-6 0 -3 -7 -13 -16 -23 -15 -17 -15 -20 3 -46 44 -64 80 -164 104 -290 12 -65
30 -79 75 -63 12 5 24 2 33 -8 13 -13 12 -14 -13 -8 -19 5 -26 3 -21 -4 4 -6
4 -22 1 -36 l-7 -25 -26 21 c-14 11 -28 19 -30 17 -1 -2 -8 -29 -14 -60 -5
-32 -16 -71 -23 -88 l-13 -30 0 47 c0 32 3 42 8 29 4 -13 7 0 6 32 -1 28 -6
49 -11 45 -5 -3 -7 5 -4 16 4 12 2 20 -3 16 -5 -3 -9 -18 -9 -35 0 -16 -3 -29
-7 -29 -10 0 -10 52 0 68 5 6 4 12 -1 12 -5 0 -10 27 -11 60 -3 112 -66 255
-145 329 -21 20 -28 22 -41 11 -9 -8 -15 -8 -15 -2 0 6 4 13 10 17 46 28 -159
135 -260 135 -36 0 -40 -3 -40 -24 0 -25 -25 -42 -36 -24 -4 7 -9 6 -15 -3 -6
-10 -12 -5 -21 19 -10 25 -18 32 -39 32 -71 0 -241 -77 -256 -116 -3 -8 -1
-20 6 -27 20 -20 12 -31 -9 -12 -19 17 -21 17 -42 -1 -47 -41 -69 -72 -102
-139 -34 -69 -63 -201 -52 -230 3 -8 1 -15 -4 -15 -6 0 -11 15 -11 33 -1 21
-3 25 -6 11 -3 -16 -9 -20 -24 -17 -13 4 -19 0 -19 -11 0 -10 -4 -15 -8 -12
-5 3 2 55 15 117 17 80 35 135 65 191 37 71 40 81 28 104 -16 30 -7 41 23 27
19 -9 25 -6 41 14 10 14 16 34 13 48 l-4 24 25 -20 25 -19 31 30 c16 18 42 38
57 45 15 8 36 27 48 42 20 27 20 27 21 5 0 -32 20 -36 98 -22 80 15 86 18 72
35 -9 11 -5 18 16 31 26 18 27 19 21 96 -4 48 -3 78 3 78 6 0 10 -35 10 -80z
m950 -355 c21 -44 45 -114 54 -155 19 -95 30 -251 16 -230 -7 11 -9 2 -5 -30
2 -25 2 -36 -1 -25 -4 11 -11 25 -16 32 -5 7 -7 22 -3 35 5 17 4 19 -3 9 -6
-8 -8 -62 -5 -128 3 -71 0 -127 -7 -151 -88 -282 -256 -487 -514 -626 -163
-88 -357 -133 -521 -121 -108 7 -222 28 -236 42 -7 7 5 7 38 0 78 -17 405 -13
490 6 241 54 534 278 641 492 11 22 35 99 53 170 32 121 34 141 34 290 0 174
-12 237 -74 399 -54 141 -9 134 59 -9z m-3141 24 c-10 -6 -10 -9 -2 -9 7 0 25
-24 39 -52 45 -89 82 -135 152 -191 72 -58 136 -88 220 -106 92 -19 91 -20 95
57 l3 67 2 -72 2 -73 50 0 c49 0 50 1 50 30 0 17 -4 30 -9 30 -5 0 -7 -9 -4
-20 3 -11 1 -20 -4 -20 -14 0 -10 43 4 47 15 5 36 -34 29 -53 -3 -7 -2 -13 2
-13 4 1 16 1 27 0 17 -1 18 -3 5 -11 -8 -5 -45 -10 -82 -10 -64 0 -68 -1 -68
-23 0 -43 41 -182 67 -226 14 -24 20 -40 13 -36 -24 15 -71 138 -83 216 -9 68
-14 79 -31 79 -50 0 -181 45 -238 82 -106 69 -245 227 -221 252 4 3 2 6 -4 6
-15 0 -32 45 -26 70 5 20 7 21 16 5 7 -12 5 -20 -4 -26z m2107 -100 c12 -24
21 -29 49 -29 28 0 35 4 35 19 0 11 -6 22 -12 24 -8 3 -6 6 5 6 11 1 17 -6 17
-19 0 -22 8 -27 56 -33 17 -3 45 -12 62 -21 33 -17 118 -117 119 -139 0 -7 4
-21 8 -32 4 -11 -10 5 -30 35 -78 114 -119 140 -225 140 -153 0 -250 -107
-253 -280 -1 -52 -5 -75 -12 -69 -5 6 -9 46 -8 90 2 65 7 88 29 129 26 48 97
122 139 146 19 10 19 12 2 38 -10 15 -23 24 -29 20 -7 -4 -8 -3 -4 4 10 17 35
3 52 -29z m212 -93 c16 -10 15 -29 0 -20 -7 3 1 -5 17 -20 17 -14 32 -25 35
-26 6 0 38 -51 39 -62 1 -5 1 -14 1 -20 0 -10 3 -9 9 1 9 14 11 10 27 -51 4
-19 3 -20 -6 -8 -8 11 -9 4 -4 -32 6 -50 -12 -130 -26 -108 -5 8 -15 0 -29
-24 -13 -20 -28 -36 -34 -36 -8 0 -9 3 -1 8 5 4 21 25 34 47 20 33 25 53 25
115 0 69 -3 81 -34 129 -59 91 -131 123 -235 101 -49 -10 -62 -18 -105 -67
-27 -30 -54 -72 -60 -92 l-11 -36 4 43 c8 88 96 172 190 182 48 5 138 -8 164
-24z m-84 -167 c20 -16 26 -29 26 -59 0 -66 -68 -93 -124 -49 -32 25 -34 66
-5 103 25 32 66 34 103 5z m-2109 -234 c21 -266 206 -530 413 -590 82 -24 161
-17 246 23 l69 32 -47 50 c-45 49 -107 160 -105 190 0 8 12 -10 26 -40 29 -65
82 -147 112 -174 21 -19 22 -19 48 5 14 13 39 44 54 68 16 25 29 41 29 36 0
-13 -58 -100 -81 -121 l-20 -18 23 -19 23 -19 -28 16 c-27 17 -30 16 -72 -8
-173 -102 -378 -45 -538 149 -103 125 -153 245 -162 393 -3 54 -8 108 -11 122
-3 18 -2 21 5 10 5 -8 12 -55 16 -105z m2868 -312 c-17 -41 -59 -106 -92 -140
-12 -12 -21 -29 -21 -37 0 -8 -5 -18 -12 -22 -7 -5 -8 -3 -3 6 5 9 4 11 -3 6
-7 -4 -12 -14 -12 -23 0 -9 -3 -13 -6 -10 -4 4 -14 -2 -23 -12 -21 -24 -77
-52 -86 -43 -5 4 -5 1 -1 -5 9 -17 -82 -75 -105 -68 -10 4 -28 -5 -45 -20 -29
-27 -44 -34 -25 -12 9 12 1 13 -42 11 l-52 -3 36 13 c117 44 241 128 351 238
48 48 90 99 94 113 6 25 24 35 24 13 0 -6 3 -8 8 -4 7 7 8 11 11 37 0 5 5 8
10 4 6 -3 3 -21 -6 -42z m-1543 -79 c0 5 36 -26 80 -68 121 -115 265 -200 405
-237 101 -27 341 -38 413 -19 26 7 56 14 67 17 l20 5 -20 -16 c-20 -15 -20
-15 3 -11 12 2 20 0 17 -6 -4 -5 -12 -9 -20 -9 -7 0 -15 -4 -17 -10 -1 -5 -39
-17 -83 -26 -87 -18 -228 -16 -322 6 -59 13 -71 28 -20 24 17 -2 7 2 -23 7
-107 20 -108 20 -85 29 19 8 19 9 -2 9 -12 1 -25 6 -29 12 -3 6 -15 8 -27 5
-12 -3 -32 3 -48 15 -15 10 -30 19 -33 19 -17 0 -185 123 -221 160 -22 24 -33
40 -25 36 9 -5 8 -2 -2 7 -10 8 -18 20 -18 26 0 7 -4 9 -10 6 -5 -3 -10 -4
-10 -1 0 2 -3 13 -6 23 -5 15 -4 15 5 3 6 -8 11 -11 11 -6z"/>
<path d="M8960 5924 c0 -8 -12 -30 -26 -49 -21 -28 -23 -37 -14 -55 6 -11 8
-25 5 -30 -3 -5 3 -15 15 -22 21 -13 28 -38 10 -38 -5 0 -10 -7 -10 -16 0 -8
-4 -12 -10 -9 -6 4 -10 -8 -10 -29 0 -20 5 -36 11 -36 5 0 9 -8 7 -17 -4 -29
11 -43 48 -43 31 0 47 -13 26 -22 -5 -1 -4 -50 1 -108 10 -117 4 -584 -8 -614
-6 -14 -4 -17 11 -14 25 4 31 76 33 374 1 228 -8 366 -35 514 -9 47 -21 118
-27 158 -6 39 -15 72 -19 72 -4 0 -8 -7 -8 -16z"/>
<path d="M7800 3704 c-49 -21 -117 -90 -147 -149 -22 -43 -25 -58 -20 -115 9
-99 17 -118 76 -184 l26 -30 -27 17 c-19 12 -26 13 -22 4 4 -13 55 -47 69 -47
3 0 3 4 0 10 -3 5 14 1 37 -10 24 -11 62 -20 85 -20 36 0 41 3 36 18 -5 15 -4
15 9 -1 12 -16 19 -17 58 -7 64 16 118 57 154 114 25 42 30 62 34 132 4 70 1
88 -18 127 -29 59 -85 115 -135 138 -50 23 -165 25 -215 3z"/>
</g>
</svg>
