<?xml version="1.0" standalone="no"?>
<!DOCTYPE svg PUBLIC "-//W3C//DTD SVG 20010904//EN"
 "http://www.w3.org/TR/2001/REC-SVG-20010904/DTD/svg10.dtd">
<svg version="1.0" xmlns="http://www.w3.org/2000/svg"
 width="1024.000000pt" height="1024.000000pt" viewBox="0 0 1024.000000 1024.000000"
 preserveAspectRatio="xMidYMid meet">
<metadata>
Created by potrace 1.16, written by Peter Selinger 2001-2019
</metadata>
<g transform="translate(0.000000,1024.000000) scale(0.100000,-0.100000)"
fill="#000000" stroke="none">
<path d="M0 5120 l0 -5120 5120 0 5120 0 0 5120 0 5120 -1270 0 -1270 0 0
-385 0 -385 273 0 c149 0 289 -3 310 -6 l37 -7 0 127 c0 77 4 126 10 126 6 0
10 -47 10 -120 l0 -120 118 0 c79 0 112 -3 102 -10 -8 -5 -61 -10 -117 -10
l-102 0 3 -362 c4 -345 14 -542 31 -580 4 -11 -1 -31 -14 -53 -18 -31 -21 -52
-21 -158 0 -96 3 -127 16 -145 9 -13 14 -26 11 -29 -3 -3 -15 10 -26 28 -18
29 -21 51 -21 149 -1 109 -2 117 -28 154 -15 22 -33 41 -41 44 -8 3 -11 0 -7
-6 4 -6 -5 -19 -19 -28 -14 -9 -25 -24 -24 -33 3 -29 -1 -32 -21 -21 -11 6
-19 7 -18 3 1 -4 -3 -18 -10 -30 -7 -12 -12 -26 -11 -30 1 -4 0 -12 -1 -18 -1
-5 -1 -33 0 -62 1 -48 -1 -53 -29 -67 -41 -22 -54 -20 -90 10 -25 20 -31 34
-31 64 0 50 29 85 88 104 35 12 71 39 141 108 l95 92 5 415 c3 229 4 423 3
433 -3 13 -25 17 -135 23 -73 4 -211 5 -307 3 l-175 -3 -5 -112 c-4 -92 -8
-116 -24 -130 -18 -18 -18 -17 -2 14 11 23 16 60 16 129 0 91 -1 96 -20 91
-11 -3 -18 -1 -14 4 8 14 -18 10 -46 -6 l-25 -15 30 6 c27 5 28 4 10 -7 -29
-18 -35 -30 -35 -71 l0 -38 45 0 c26 0 45 -5 45 -11 0 -7 -28 -10 -86 -8 l-86
4 6 -40 c3 -22 8 -58 12 -80 5 -33 4 -38 -8 -27 -21 21 -24 196 -4 227 29 44
95 85 138 85 l38 0 0 385 0 385 -3845 0 -3845 0 0 -5120z m7966 5026 c46 -46
47 -93 3 -130 -43 -36 -91 -35 -130 3 -46 47 -38 115 19 145 43 24 71 19 108
-18z m-2537 -60 c28 -15 51 -53 51 -84 0 -24 -35 -73 -62 -88 -37 -21 -66 -16
-104 19 -30 27 -36 40 -36 72 0 74 80 117 151 81z m276 -227 c100 -33 194 -82
270 -138 45 -34 62 -39 159 -54 325 -50 722 -179 1035 -337 111 -55 442 -254
516 -309 28 -21 84 -62 125 -91 171 -123 360 -289 360 -317 0 -12 -55 -53 -72
-53 -4 0 -36 24 -70 53 -35 29 -97 81 -138 116 -77 65 -342 253 -463 329 -254
160 -580 308 -872 396 -49 15 -104 32 -120 37 -17 5 -91 22 -165 39 -128 28
-160 43 -160 73 0 24 394 -73 607 -149 458 -163 921 -437 1320 -781 70 -61
116 -86 77 -42 -50 56 -365 296 -539 411 -212 140 -449 271 -598 329 -28 11
-74 31 -102 43 -164 75 -533 181 -733 211 -96 14 -104 17 -169 66 -123 94
-363 189 -475 189 -20 0 -39 4 -43 9 -17 28 126 11 250 -30z m-405 33 c0 -4
-39 -13 -87 -20 -155 -21 -280 -73 -420 -174 -82 -58 -84 -59 -200 -79 -337
-56 -782 -210 -1088 -376 -165 -90 -273 -159 -456 -293 -165 -120 -411 -341
-397 -355 4 -5 52 35 105 88 379 373 937 686 1502 842 145 40 350 85 383 85
21 -1 20 -3 -14 -35 -25 -23 -48 -35 -66 -35 -79 0 -454 -111 -677 -200 -286
-114 -572 -273 -790 -438 -95 -73 -295 -245 -355 -306 -30 -31 -59 -56 -65
-56 -6 0 -26 16 -45 35 -40 42 -51 27 130 193 123 114 257 218 435 338 409
276 928 480 1417 558 88 13 104 19 160 59 111 78 275 150 388 170 45 8 140 7
140 -1z m960 -102 c114 -17 344 -75 477 -121 127 -44 302 -115 317 -130 25
-23 -9 -17 -90 17 -227 94 -515 178 -726 210 -75 12 -108 21 -108 30 0 9 9 12
28 9 15 -2 61 -9 102 -15z m-1630 1 c0 -5 -44 -17 -97 -26 -235 -42 -490 -113
-678 -191 -60 -25 -121 -48 -135 -51 -49 -10 1 24 90 63 171 73 450 157 645
193 33 6 69 12 80 15 39 7 95 6 95 -3z m3969 -318 l1 -121 31 -31 c23 -24 29
-36 24 -53 -18 -59 -80 -78 -109 -36 -23 32 -20 65 9 94 l25 25 2 222 c1 186
2 206 8 122 4 -55 8 -155 9 -222z m-6648 222 c35 -19 69 -70 69 -105 0 -38
-36 -88 -75 -107 -32 -15 -40 -16 -77 -3 -53 19 -81 57 -81 110 0 90 86 145
164 105z m3634 -25 c150 -40 299 -129 395 -237 146 -165 224 -394 204 -598
l-9 -80 -6 145 c-8 164 -25 236 -90 361 -74 143 -200 264 -352 338 -113 56
-182 72 -322 78 -147 6 -244 -15 -380 -81 -159 -77 -289 -206 -363 -359 -53
-109 -74 -197 -82 -347 -5 -99 -7 -110 -9 -55 -7 185 10 278 74 410 53 109
113 186 202 260 119 98 257 161 408 185 87 13 238 4 330 -20z m-3266 -197 c-2
-71 -2 -210 -1 -310 l2 -183 148 -1 c105 -1 136 -4 107 -10 -22 -4 -90 -8
-151 -8 l-112 -1 -4 -69 c-4 -78 -18 -100 -82 -133 -28 -15 -52 -19 -83 -15
-51 5 -71 20 -91 67 -14 33 -19 147 -6 159 3 3 60 8 127 11 l122 5 -4 308 c-3
283 -2 307 14 307 15 0 16 -13 14 -127z m6709 27 c101 -62 95 -204 -12 -259
-43 -22 -50 -23 -89 -11 -23 7 -54 21 -69 32 -49 34 -60 137 -22 196 38 59
130 79 192 42z m-3498 -76 c287 -80 463 -360 407 -645 -24 -122 -66 -200 -157
-290 -118 -118 -239 -169 -400 -169 -195 0 -357 87 -465 250 -67 101 -88 165
-93 291 -5 127 12 202 65 299 125 224 392 333 643 264z m-3610 -389 l0 -364
285 6 c213 5 285 3 285 -5 0 -9 -75 -12 -285 -12 l-285 0 0 -585 c0 -322 2
-585 5 -585 2 0 21 30 41 68 143 261 228 392 393 607 84 109 227 265 243 265
18 0 7 -38 -18 -61 -38 -35 -213 -244 -276 -330 -104 -142 -182 -270 -316
-514 l-65 -120 2 -250 c1 -226 7 -282 27 -262 9 8 9 49 -1 70 -5 13 -4 16 8
11 18 -7 24 -28 19 -67 -5 -36 -33 -51 -58 -32 -18 12 -19 29 -19 234 0 121
-3 217 -6 213 -12 -13 -146 -356 -177 -452 -112 -351 -184 -753 -199 -1114
l-6 -156 -24 0 -25 0 7 138 c22 472 95 864 231 1239 53 147 130 321 168 382
l27 42 -1 987 c-1 1151 -2 1025 10 1017 6 -4 10 -138 10 -370z m-412 223 c17
-17 15 -53 -3 -68 -13 -11 -15 -94 -15 -635 l0 -622 30 -6 c17 -4 30 -11 30
-17 0 -14 -53 -13 -68 2 -9 9 -12 165 -12 640 0 550 -2 629 -15 634 -21 8 -19
61 3 73 23 14 36 13 50 -1z m7093 -215 c0 -81 4 -186 8 -233 8 -73 12 -87 36
-107 24 -22 35 -23 166 -23 l140 0 -2 223 c-2 274 -1 297 11 297 6 0 10 -93
10 -260 0 -241 1 -260 18 -261 16 -1 16 -2 0 -6 -17 -4 -18 -37 -18 -509 0
-329 -3 -504 -10 -504 -7 0 -10 163 -10 469 0 258 -3 483 -6 500 l-6 31 -224
0 c-141 0 -224 4 -224 10 0 6 28 7 76 3 l77 -6 -24 32 c-22 31 -24 43 -29 199
-5 176 -3 308 6 299 3 -3 5 -72 5 -154z m-4191 138 c0 -5 -37 -19 -82 -31
-383 -103 -768 -289 -1043 -504 -123 -96 -283 -218 -309 -235 -53 -36 111 120
214 203 306 248 714 452 1101 550 107 28 119 29 119 17z m2034 -11 c168 -39
456 -146 456 -170 0 -14 -3 -13 -68 14 -132 55 -274 101 -449 146 -24 6 -43
15 -43 20 0 14 7 13 104 -10z m1562 -35 c18 -4 37 -17 45 -31 12 -22 18 -24
103 -25 50 -1 105 -5 121 -9 17 -4 -65 -8 -185 -8 -164 -1 -219 2 -232 12 -23
17 -23 26 5 52 23 23 72 26 143 9z m1694 -553 l0 -258 35 -31 c48 -43 48 -83
0 -129 l-36 -33 1 -158 c4 -707 -1 -1513 -10 -1513 -7 0 -10 286 -10 837 l0
836 -40 34 c-29 25 -40 42 -40 63 0 21 11 38 40 63 l40 34 0 256 c0 165 4 257
10 257 6 0 10 -93 10 -258z m-2276 147 c212 -143 416 -306 416 -334 0 -8 -3
-15 -6 -15 -3 0 -47 35 -98 78 -105 91 -257 205 -368 277 -73 47 -101 75 -76
75 6 0 65 -37 132 -81z m-3440 -10 c30 -36 31 -39 12 -84 -19 -44 -69 -56
-115 -29 -36 21 -45 43 -36 84 14 65 95 82 139 29z m5174 -91 c17 -17 15 -53
-3 -68 -13 -10 -15 -53 -15 -269 l0 -256 217 1 c151 1 195 -1 143 -6 -41 -4
-139 -8 -217 -9 l-143 -1 0 -278 0 -277 25 -45 c132 -233 257 -585 325 -915
25 -119 50 -313 49 -370 l-1 -40 -9 40 c-4 22 -15 83 -23 135 -61 383 -165
720 -327 1059 l-59 124 0 547 c0 468 -2 549 -15 560 -21 18 -28 49 -15 65 15
18 52 19 68 3z m-1928 -33 c80 -41 112 -148 69 -225 -84 -148 -295 -101 -307
69 -4 65 19 109 77 148 40 27 117 31 161 8z m-3928 -181 c25 -13 32 -14 39 -2
8 12 10 11 13 -11 0 -5 5 -13 10 -18 5 -4 6 -3 2 4 -3 6 -2 14 3 17 5 3 11 -1
15 -9 3 -8 14 -15 25 -15 19 0 35 -25 26 -41 -4 -5 2 -6 11 -2 14 5 16 3 10
-13 -6 -15 -5 -17 5 -6 15 14 33 16 24 2 -3 -5 -2 -10 3 -10 9 0 27 -46 24
-61 -1 -4 3 -22 8 -40 14 -46 -4 -23 -25 34 -10 26 -20 46 -22 43 -2 -2 8 -34
23 -71 19 -48 29 -63 36 -53 18 25 1 -96 -22 -157 -16 -43 -37 -74 -75 -110
-100 -96 -205 -109 -332 -40 -114 61 -153 107 -177 212 -10 44 -17 57 -29 55
-10 -2 -17 2 -17 8 0 6 4 9 9 6 15 -10 33 22 26 46 -5 17 -4 19 4 8 8 -12 11
-11 16 5 4 11 15 42 26 69 15 38 16 46 4 36 -16 -14 -20 -3 -6 19 5 7 14 10
20 7 18 -11 13 3 -9 26 -32 35 -23 45 10 13 26 -25 32 -27 40 -15 5 8 10 17
10 20 0 5 25 17 100 46 48 18 134 17 172 -2z m3152 -262 c10 -30 55 -52 108
-53 33 0 38 -2 23 -9 -11 -5 -36 -9 -56 -9 -56 -1 -81 -27 -87 -92 -4 -39 -7
-49 -13 -34 -4 11 -8 33 -8 48 -1 43 -39 73 -102 82 -41 6 -49 10 -34 16 11 4
34 8 51 8 51 1 73 28 86 101 l12 65 7 -50 c3 -28 9 -61 13 -73z m706 -322 c0
-331 2 -380 15 -380 12 0 15 -14 14 -72 -1 -52 -3 -64 -8 -43 -5 19 -10 -24
-14 -115 -4 -80 -11 -163 -15 -185 -6 -34 -7 -27 -13 50 -3 50 -12 152 -19
228 -11 108 -11 140 -2 146 10 6 13 100 13 379 0 320 2 372 14 372 13 0 15
-53 15 -380z m1308 190 c12 8 132 -143 227 -285 285 -429 496 -990 565 -1509
36 -271 50 -625 24 -633 -7 -3 -13 54 -18 179 -25 655 -197 1259 -511 1798
-75 129 -155 252 -218 332 -15 21 -26 42 -23 47 4 5 1 13 -5 17 -8 5 -10 3 -4
-7 5 -9 2 -9 -9 2 -10 9 -19 25 -20 35 -2 10 -8 18 -14 17 -5 -1 -18 8 -28 20
l-19 22 24 -20 c13 -11 26 -18 29 -15z m-6688 15 c0 -2 -15 -28 -34 -57 -18
-29 -45 -77 -60 -105 l-26 -53 90 0 c50 0 89 -3 86 -8 -2 -4 -42 -6 -88 -5
-46 1 -88 -1 -94 -5 -39 -24 -242 -496 -328 -758 -112 -345 -196 -783 -196
-1021 0 -33 -4 -53 -11 -53 -22 0 11 363 51 575 63 329 202 751 349 1057 58
121 182 347 220 400 23 33 41 48 41 33z m876 -41 c-3 -9 -6 -22 -6 -29 0 -8
-20 -39 -44 -69 -41 -49 -87 -117 -204 -294 -60 -92 -169 -309 -228 -457 -35
-86 -58 -131 -69 -133 -20 -4 -19 -3 32 138 84 230 288 588 452 793 52 64 80
86 67 51z m2008 -197 l66 -129 0 -253 c0 -169 -4 -256 -11 -260 -6 -4 -12 -5
-14 -4 -2 2 -6 120 -10 262 -6 206 -10 257 -21 257 -8 0 -14 -11 -14 -25 0
-24 -2 -25 -75 -25 l-75 0 0 30 c0 27 3 30 33 32 17 0 42 0 55 -1 20 -2 22 2
21 51 0 29 -6 86 -13 126 -7 40 -12 71 -11 70 2 -2 32 -61 69 -131z m764 89
c103 -25 235 -55 295 -68 l107 -23 0 -39 0 -39 -62 6 c-35 3 -170 21 -300 39
l-238 33 0 67 c0 38 3 68 6 68 3 0 89 -20 192 -44z m2894 -126 c50 -64 186
-271 241 -366 138 -243 247 -516 327 -819 45 -173 47 -234 2 -75 -135 475
-294 828 -528 1173 -111 164 -125 193 -42 87z m-452 -127 l0 -148 -95 -1 -95
0 0 52 0 52 90 8 90 7 0 88 c0 49 2 89 5 89 3 0 5 -66 5 -147z m-6093 62 l21
-15 -34 -58 c-215 -356 -434 -1048 -470 -1486 -6 -82 -8 -86 -30 -86 -29 0
-29 -6 -8 186 50 478 207 998 418 1382 52 95 64 104 103 77z m4018 1 c23 -2
31 -8 33 -25 l4 -23 -116 8 c-76 4 -116 3 -116 -3 0 -14 59 -23 148 -23 44 0
72 -4 72 -11 0 -5 -4 -7 -10 -4 -5 3 -10 -2 -10 -11 0 -14 -3 -15 -12 -6 -7 7
-17 8 -28 2 -9 -5 -25 -9 -36 -10 -175 -5 -214 -4 -214 3 0 4 -4 5 -10 2 -6
-4 -10 14 -10 46 l0 52 60 -6 c48 -5 60 -4 60 7 0 14 34 14 185 2z m855 -129
c0 -75 18 -116 83 -186 34 -36 67 -67 74 -69 17 -4 25 -39 21 -88 -3 -38 -4
-39 -40 -38 -21 0 -105 1 -187 2 l-148 2 -6 52 -7 53 74 75 c77 79 106 123
106 163 0 41 12 87 21 81 5 -3 9 -24 9 -47z m319 -222 c1 -126 -2 -321 -6
-432 l-6 -203 -24 0 c-19 0 -23 5 -23 30 0 23 4 30 20 30 20 0 20 7 21 428 1
235 5 416 9 402 4 -14 8 -128 9 -255z m-1650 -687 c-1 -491 -5 -904 -9 -918
-8 -24 -8 -24 -9 -2 -1 12 -4 21 -8 21 -18 -3 -34 2 -30 9 3 4 -1 13 -9 20
-12 11 -14 8 -16 -15 -1 -15 -5 42 -8 127 -9 203 -12 1635 -3 1643 3 4 26 7
50 7 l43 0 -1 -892z m141 37 c0 -765 -4 -892 -23 -843 -4 10 -8 9 -16 -2 -9
-12 -13 -13 -20 -1 -7 10 -11 9 -23 -8 -14 -19 -15 -9 -21 116 -4 75 -7 463
-7 862 l0 726 55 -3 55 -4 0 -843z m129 839 c8 -7 2 -1667 -6 -1719 -5 -33 -7
-36 -14 -20 -6 17 -8 17 -8 3 -1 -26 -21 -22 -22 5 0 19 -1 20 -8 4 -4 -10
-11 -17 -16 -15 -6 2 -13 -17 -16 -42 -3 -25 -7 371 -7 879 l-2 924 47 -7 c25
-3 49 -9 52 -12z m131 -722 c0 -401 -3 -805 -7 -898 -6 -155 -8 -166 -20 -136
-7 18 -18 30 -23 27 -6 -3 -10 -1 -10 4 0 6 -4 11 -10 11 -5 0 -11 -15 -11
-32 -1 -23 -4 -16 -9 22 -5 30 -8 432 -9 893 l-1 837 50 0 50 0 0 -728z m110
-151 c0 -769 -2 -881 -15 -895 -8 -8 -15 -21 -15 -28 0 -11 -2 -11 -9 0 -14
23 -26 14 -32 -25 -3 -21 -7 382 -8 895 l-1 932 40 0 40 0 0 -879z m-1978 692
c5 -226 -5 -639 -16 -645 -6 -4 -73 -8 -148 -8 l-138 0 0 30 0 30 125 0 c104
0 125 2 125 15 0 13 -21 15 -125 15 l-125 0 0 30 0 30 125 0 c104 0 125 2 125
15 0 13 -21 15 -125 15 l-125 0 0 36 0 36 125 -7 c108 -6 125 -5 125 8 0 18
-110 32 -199 26 l-51 -4 0 32 0 32 125 3 c75 2 125 7 125 13 0 6 -50 11 -125
13 l-125 3 0 29 0 29 127 3 c90 2 128 7 131 16 3 9 -27 12 -127 12 l-131 0 0
38 0 38 127 -1 c92 0 127 3 130 13 4 9 -26 12 -125 12 l-129 0 -6 76 c-4 42
-4 80 -1 85 3 5 72 9 155 9 l149 0 2 -77z m-1036 1 c23 -6 25 -10 19 -43 -4
-20 -8 -37 -9 -39 -2 -1 -40 -4 -85 -5 l-81 -3 0 47 0 46 65 2 c36 1 77 -2 91
-5z m472 -404 l-3 -390 118 0 117 0 0 -25 0 -25 -216 0 -215 0 3 23 c3 21 8
22 91 25 l87 3 0 389 c0 259 3 390 10 390 7 0 10 -129 8 -390z m897 99 c5
-245 6 -254 23 -271 27 -27 6 -68 -34 -68 -37 0 -48 24 -27 62 16 29 18 58 16
262 -2 210 1 255 13 243 3 -2 7 -105 9 -228z m3705 131 c0 -73 2 -80 19 -80
19 0 20 -10 26 -137 3 -76 7 -329 9 -563 3 -473 -9 -423 -22 90 -5 162 -9 286
-10 275 -2 -11 -5 -164 -7 -340 -6 -414 -22 -518 -25 -170 -2 138 -6 322 -10
410 -5 139 -7 116 -8 -170 -1 -181 -5 -368 -9 -415 -7 -84 -7 -84 -14 -35 -4
28 -8 187 -9 355 -1 168 -5 330 -10 360 -4 33 -8 -82 -10 -295 -4 -514 -14
-567 -24 -130 -4 204 -12 395 -16 425 -4 30 -5 -75 -2 -235 4 -261 -2 -474
-15 -462 -2 3 -7 148 -10 323 -8 461 -20 499 -22 67 0 -200 -5 -363 -9 -363
-11 0 -22 256 -22 513 0 108 -3 197 -8 197 -4 0 -8 -80 -9 -177 -1 -98 -5
-259 -10 -358 l-8 -180 -6 160 c-3 88 -7 252 -8 364 -1 130 -4 202 -11 195 -5
-5 -10 -143 -11 -331 0 -188 -5 -321 -10 -317 -5 3 -10 87 -10 187 -1 100 -5
247 -9 327 -6 133 -7 121 -10 -145 -3 -335 -15 -300 -26 77 -3 125 -9 226 -13
224 -3 -2 -8 -106 -9 -231 -2 -125 -7 -237 -12 -248 -6 -13 -8 164 -7 445 l2
468 188 0 187 0 0 -80z m-5020 0 l0 -40 -119 0 -120 0 -3 32 c-2 27 -8 34 -33
39 -16 4 39 7 123 8 l152 1 0 -40z m3969 -250 l1 -231 -113 6 c-180 9 -197 13
-208 41 -5 14 -9 104 -9 200 0 148 -2 174 -15 174 -13 0 -15 -27 -15 -180 0
-99 -3 -180 -7 -180 -28 1 -32 21 -33 200 -1 102 -1 188 -1 192 1 4 91 7 200
8 l199 0 1 -230z m-941 214 l22 -6 0 -408 c0 -440 -8 -710 -22 -710 -4 0 -8 8
-9 18 -1 11 -4 8 -8 -8 -9 -29 -21 481 -21 858 0 144 3 262 8 262 4 0 17 -3
30 -6z m-3072 -84 l114 0 -6 -32 c-12 -74 -14 -78 -37 -78 -12 0 -28 4 -36 9
-11 7 -8 12 12 26 14 9 31 14 37 10 5 -3 10 1 10 9 0 19 -22 12 -65 -19 -49
-36 -63 -39 -25 -6 43 38 24 41 -22 4 l-33 -28 18 28 18 28 -28 -7 c-15 -4
-35 -13 -44 -20 -24 -21 -34 -17 -14 6 10 11 13 20 8 20 -6 0 -16 -7 -23 -15
-7 -8 -17 -15 -23 -15 -5 0 -2 9 7 19 17 19 17 19 -22 17 -22 -2 -45 -7 -51
-10 -13 -8 -16 46 -3 58 4 4 27 5 51 2 24 -3 95 -6 157 -6z m1562 -692 c-1
-429 -4 -630 -8 -528 -12 273 -11 1220 0 1220 7 0 9 -236 8 -692z m82 107 c0
-353 -4 -585 -9 -585 -6 0 -7 24 -4 55 4 38 2 55 -6 55 -8 0 -11 140 -11 530
0 464 2 530 15 530 13 0 15 -72 15 -585z m103 573 c-2 -5 -3 -292 -3 -639 0
-417 -3 -628 -10 -624 -5 3 -11 18 -11 33 l-1 27 -8 -30 c-4 -16 -8 257 -9
608 l-1 638 23 -3 c12 -2 21 -6 20 -10z m93 -460 c-6 -526 -15 -940 -22 -947
-2 -2 -6 -2 -9 0 -7 8 -19 1384 -12 1403 4 9 16 16 27 16 20 0 20 -1 16 -472z
m114 25 l0 -443 145 0 c134 0 145 -1 145 -18 0 -17 -14 -19 -167 -25 -91 -4
-167 -6 -169 -4 -2 2 -7 914 -5 927 1 3 12 5 26 5 l25 0 0 -442z m-1850 253
c0 -19 -4 -37 -9 -40 -32 -20 -451 -43 -451 -25 0 10 98 19 225 20 66 0 140 4
165 9 29 5 -34 7 -173 6 -119 0 -217 1 -218 4 0 3 -3 17 -5 33 l-5 27 236 0
235 0 0 -34z m3610 -178 l65 -35 0 -81 c-1 -50 -5 -86 -13 -94 -7 -7 -12 -23
-13 -37 0 -24 -1 -24 -9 -6 -5 11 -9 14 -9 8 -1 -7 -4 -13 -8 -12 -20 3 -52
-14 -46 -25 5 -7 2 -7 -8 1 -9 7 -20 8 -28 3 -8 -4 -20 -6 -26 -4 -7 3 -23 -6
-36 -20 -13 -14 -28 -26 -32 -26 -5 0 -1 7 7 16 18 18 19 24 7 43 -14 22 -41
5 -41 -25 0 -21 -4 -25 -20 -21 -10 3 -19 2 -18 -2 0 -3 -1 -13 -2 -21 -8 -45
-18 110 -19 278 l-1 193 93 -50 c50 -27 121 -65 157 -83z m-1480 -189 l0 -300
-37 3 -38 3 -3 298 -2 297 40 0 40 0 0 -301z m129 -171 c0 -260 -4 -495 -9
-523 -4 -29 -8 -39 -9 -22 0 17 -7 27 -16 27 -8 0 -16 8 -16 18 -1 15 -2 15
-6 0 -2 -9 -10 -19 -18 -22 -12 -4 -14 60 -15 427 0 238 -3 462 -7 500 l-6 67
52 0 51 0 -1 -472z m-1091 290 c17 -14 15 -79 -3 -105 -12 -17 -25 -22 -53
-21 -52 1 -62 13 -62 74 0 40 4 56 18 64 19 11 80 4 100 -12z m-1987 -73 c3
-33 3 -93 1 -132 l-5 -73 -32 0 c-30 0 -33 3 -39 38 -8 51 -8 217 1 226 4 4
21 6 38 4 29 -3 30 -5 36 -63z m799 -100 l0 -35 -105 0 -105 0 -1 -477 c-1
-416 -10 -697 -18 -583 -3 32 -4 33 -11 10 -5 -16 -9 14 -11 85 -7 195 -10
1015 -4 1025 4 6 59 10 131 10 l124 0 0 -35z m-290 -117 c0 -42 -3 -49 -16
-44 -9 3 -72 6 -140 6 l-124 0 0 40 0 39 103 3 c56 2 119 4 140 4 l37 1 0 -49z
m174 -515 c-4 -313 -10 -572 -15 -578 -6 -5 -9 -5 -9 3 0 6 -6 9 -13 6 -20 -7
-27 162 -27 688 l0 448 35 0 35 0 -6 -567z m118 380 c3 -183 -5 -945 -10 -930
-1 4 -3 10 -4 15 -1 4 -7 12 -12 18 -8 9 -13 8 -18 -5 -5 -12 -7 -11 -7 7 -1
31 -21 18 -23 -16 -4 -58 -15 470 -17 770 l-1 317 38 4 c20 2 40 4 44 5 4 1 8
-82 10 -185z m388 -40 c0 -211 -8 -286 -25 -241 -8 20 -35 12 -35 -10 0 -10
-3 -13 -10 -6 -5 5 -11 112 -12 247 l-3 237 43 0 42 0 0 -227z m818 -190 c-2
-224 -7 -324 -15 -338 -7 -11 -13 -16 -13 -11 0 5 -7 3 -15 -4 -9 -7 -19 -10
-23 -6 -4 4 -8 158 -10 342 l-3 334 42 0 41 0 -4 -317z m113 307 l49 0 0 -239
c0 -231 -1 -240 -20 -246 -11 -3 -20 -11 -20 -16 0 -5 -17 -9 -38 -9 l-39 0
-6 143 c-4 78 -7 195 -7 261 0 104 2 117 16 112 9 -3 38 -6 65 -6z m3262 -69
l38 -1 -6 -776 -6 -775 -47 -59 -47 -59 -3 810 c-2 705 -4 809 -17 809 -13 0
-15 -105 -15 -821 0 -452 -3 -826 -7 -833 -4 -6 -6 -48 -5 -93 3 -55 0 -83 -7
-83 -6 0 -11 6 -11 13 0 9 -2 9 -9 -1 -9 -14 -23 1065 -20 1523 1 154 -3 281
-7 283 -8 2 -19 -755 -23 -1557 -1 -277 -3 -312 -16 -301 -13 11 -15 6 -17
-36 -3 -89 -15 892 -17 1403 -1 428 -3 502 -15 497 -9 -4 -14 -20 -13 -47 0
-23 0 -421 -1 -884 -2 -757 -6 -905 -25 -825 -2 11 -7 5 -14 -18 -11 -41 -23
639 -23 1342 0 383 -2 438 -15 438 -13 0 -15 -96 -15 -806 0 -720 -2 -811 -16
-855 -12 -35 -19 -47 -25 -37 -6 8 -9 -8 -11 -42 -4 -106 -15 761 -17 1272
l-1 517 78 3 c68 3 244 3 355 -1z m-3754 -173 c-1 -134 -13 -312 -18 -251 0
12 -7 23 -13 25 -10 4 -14 52 -16 185 -4 193 -5 185 41 192 4 0 7 -68 6 -151z
m-1620 -17 c-1 -93 -4 -132 -9 -106 -4 22 -8 34 -9 28 -1 -16 -41 -17 -41 -1
0 20 -12 0 -20 -34 -5 -21 -8 21 -9 117 l-1 150 45 -3 45 -4 -1 -147z m2951
54 c0 -23 -4 -25 -45 -25 -29 0 -45 4 -45 13 0 9 -2 9 -8 1 -7 -13 -73 -17
-209 -15 -82 1 -83 1 -83 26 l0 25 195 0 195 0 0 -25z m1556 -1 c72 -34 98
-134 49 -192 -40 -48 -77 -58 -131 -37 -56 21 -84 62 -84 124 0 37 6 49 39 82
43 44 72 49 127 23z m-1556 -90 l0 -24 -172 0 c-95 0 -183 -3 -195 -6 -20 -6
-23 -3 -23 25 l0 31 188 2 c103 2 190 2 195 0 4 -2 7 -14 7 -28z m4869 -229
c0 -5 -47 -58 -106 -117 l-106 -107 -7 -68 c-4 -37 -8 -60 -9 -50 0 10 -5 15
-11 12 -5 -3 -11 0 -12 7 -1 7 -5 -30 -8 -82 l-6 -95 -2 129 -2 129 -117 118
c-104 106 -115 120 -103 136 8 10 63 69 124 130 l110 113 127 -123 c69 -67
127 -126 128 -132z m-8742 194 c101 -49 114 -196 23 -267 -105 -82 -250 -10
-250 124 0 59 26 105 79 141 43 29 92 29 148 2z m3873 -54 l0 -25 -179 0 c-99
0 -186 -3 -195 -6 -13 -5 -16 1 -16 25 l0 31 195 0 195 0 0 -25z m1060 -129
l64 -90 4 -85 c3 -65 0 -91 -11 -105 -14 -19 -15 -18 -22 12 -4 22 -12 32 -26
32 -10 0 -19 5 -19 11 0 5 -5 7 -12 3 -6 -4 -8 -3 -5 3 4 6 0 16 -8 23 -8 7
-15 18 -15 25 0 8 -4 15 -9 17 -4 2 -11 62 -15 133 -4 74 -3 126 2 120 4 -5
37 -50 72 -99z m-1160 34 l0 -30 -140 0 -140 0 0 30 0 30 140 0 140 0 0 -30z
m3868 -61 l42 -46 -43 -44 -42 -44 -43 47 -44 47 43 46 c23 25 43 44 44 43 1
-2 20 -24 43 -49z m-5450 -171 c28 -3 29 -6 31 -70 l1 -38 80 0 80 0 0 -95 0
-95 -219 0 c-313 0 -302 17 22 36 l117 7 0 52 0 52 -157 8 c-176 8 -244 22
-123 26 41 1 84 2 95 3 15 1 21 9 23 34 3 28 7 32 35 33 33 1 28 3 -35 14 -39
6 -55 35 -19 35 21 0 30 31 33 119 1 38 3 28 5 -31 4 -86 4 -87 31 -90z m1380
160 c9 -9 15 -9 24 0 8 8 55 12 145 12 126 0 133 -1 133 -20 0 -19 -7 -20
-127 -20 -71 0 -158 -3 -195 -6 -64 -7 -67 -6 -61 14 4 18 18 25 59 31 5 0 15
-4 22 -11z m3262 -103 l0 -95 -62 0 c-61 0 -61 0 -43 20 14 16 16 23 7 32 -18
18 -14 38 7 38 16 0 20 -8 23 -37 2 -20 9 -39 17 -41 11 -4 13 5 8 47 -8 66
-11 71 -52 71 -38 0 -43 -8 -47 -90 -3 -43 -4 -44 -38 -48 l-35 -3 3 101 3
100 105 0 104 0 0 -95z m-6683 -105 c10 -422 79 -821 207 -1198 l35 -102 -39
-20 -40 -20 -15 36 c-29 70 -107 320 -135 438 -33 132 -74 386 -89 546 -15
157 -24 406 -16 419 4 7 25 11 48 9 l42 -3 2 -105z m-213 -72 c15 -285 52
-553 112 -805 26 -111 30 -143 15 -128 -25 26 -96 377 -121 595 -6 52 -13 105
-15 118 -11 65 -17 352 -8 352 6 0 13 -55 17 -132z m380 5 c40 -664 128 -1025
376 -1553 156 -332 366 -650 645 -977 73 -86 121 -150 121 -163 0 -22 0 -22
-17 -2 -11 14 -20 17 -30 11 -11 -7 -11 -9 4 -9 9 0 18 -4 18 -10 3 -20 4 -25
13 -40 22 -37 -106 97 -205 215 -436 517 -767 1197 -888 1818 -40 204 -48 270
-66 490 -16 204 -19 300 -8 310 23 23 31 2 37 -90z m5230 31 c10 -26 7 -144
-4 -165 -15 -27 -66 -26 -81 3 -14 26 -6 142 11 163 17 20 66 19 74 -1z m1315
-86 c-1 -57 -5 -116 -9 -133 -9 -35 -12 -23 -14 61 -3 86 -20 105 -26 29 -5
-56 -7 -60 -30 -60 -21 0 -26 5 -28 33 -2 19 1 32 8 32 6 0 8 5 4 12 -5 8 -2
9 9 5 9 -3 19 -2 22 3 4 6 1 10 -4 10 -6 0 -21 12 -34 26 -42 49 -56 50 -90 9
-22 -28 -32 -33 -38 -23 -10 16 -12 82 -2 91 3 4 57 7 120 7 l113 0 -1 -102z
m-5439 12 l0 -40 -140 0 -140 0 0 36 c0 31 3 36 20 31 11 -3 18 -1 14 4 -3 5
48 9 120 9 l126 0 0 -40z m6617 -92 c18 -27 29 -48 23 -48 -5 0 -10 5 -10 10
0 6 -5 10 -11 10 -6 0 -8 -7 -5 -16 5 -12 2 -15 -9 -10 -9 3 -14 2 -11 -2 3
-5 -6 -21 -19 -36 -13 -15 -22 -33 -19 -40 3 -7 -8 -21 -23 -31 -28 -18 -28
-18 -10 2 24 27 21 40 -4 17 -12 -10 -23 -18 -25 -16 -3 1 -12 -2 -22 -7 -9
-6 -12 -11 -6 -11 5 0 14 3 20 8 5 4 3 0 -4 -8 -7 -8 -20 -15 -30 -15 -9 0
-16 -5 -15 -12 2 -8 -4 -10 -15 -6 -15 6 -15 5 -3 -10 12 -15 12 -17 -2 -12
-8 4 -18 1 -23 -6 -5 -8 -3 -10 6 -4 9 5 11 4 6 -4 -6 -9 -11 -9 -24 1 -12 10
-14 10 -8 1 4 -8 2 -13 -4 -13 -6 0 -9 -4 -6 -9 6 -10 -24 -25 -32 -16 -3 3 0
5 6 5 7 0 12 5 12 11 0 6 -28 -15 -62 -48 -158 -150 -196 -183 -219 -185 -20
-3 -24 1 -21 21 2 21 0 22 -15 10 -10 -8 -24 -21 -31 -29 -11 -13 -12 -12 -3
5 19 40 550 545 570 542 8 -1 29 -23 48 -49z m-3812 -9 c35 -30 234 -137 329
-175 166 -67 379 -136 526 -170 80 -19 148 -34 153 -34 10 0 8 -545 -2 -745
-5 -88 -17 -211 -27 -273 -18 -115 -18 -114 13 -199 4 -9 -10 -13 -48 -14 -51
-2 -52 -2 -19 -10 24 -6 11 -7 -45 -4 -59 3 -104 13 -175 39 -86 31 -91 34
-50 31 25 -2 74 -10 110 -19 74 -18 164 -22 140 -6 -8 5 -27 10 -42 10 -48 0
-158 51 -197 90 -53 54 -61 67 -55 84 8 20 20 20 31 2 17 -28 78 -56 125 -56
37 0 52 5 72 25 39 39 42 68 12 124 l-26 50 15 98 c18 118 35 378 35 524 l0
106 -112 22 c-225 45 -540 171 -732 293 l-70 44 -85 -54 c-214 -134 -523 -246
-808 -293 l-72 -12 4 -61 c3 -33 7 -135 10 -226 3 -91 12 -212 19 -270 7 -58
11 -111 8 -119 -3 -8 -34 -64 -69 -125 -35 -60 -63 -114 -63 -118 0 -4 -4 -8
-8 -8 -17 0 -33 276 -39 668 -3 221 -2 402 2 402 32 0 327 67 437 100 230 68
503 189 623 278 42 31 47 31 80 1z m-1849 -97 c-2 -15 -5 -34 -5 -43 -1 -23
-131 -27 -131 -4 0 8 8 16 18 16 16 1 16 2 0 6 -10 2 -18 14 -19 26 -1 18 -2
17 -9 -6 -5 -16 -6 -35 -3 -43 6 -15 -1 -17 -34 -8 -13 4 -23 11 -23 16 0 5
10 6 21 3 16 -5 20 -3 17 6 -3 8 -15 13 -26 11 -17 -3 -22 2 -23 20 l-2 23 -4
-22 c-2 -13 -9 -23 -14 -23 -6 0 -9 10 -7 23 3 21 8 22 118 27 63 3 118 4 123
2 4 -2 5 -16 3 -30z m5834 -14 c0 -54 -34 -327 -60 -478 -98 -574 -366 -1181
-738 -1675 -80 -105 -216 -258 -220 -246 -3 9 60 95 88 121 13 12 211 282 257
350 262 392 473 894 569 1355 24 119 84 535 84 588 0 15 5 27 10 27 6 0 10
-19 10 -42z m130 -36 c0 -146 -83 -615 -150 -848 -144 -497 -439 -1076 -680
-1334 l-42 -45 35 45 c126 166 288 433 396 653 220 450 350 900 407 1410 10
86 21 157 26 157 4 0 8 -17 8 -38z m-7281 -156 c-1 -88 -3 -153 -6 -143 -7 28
-42 21 -50 -10 -10 -34 -20 68 -22 217 l-1 95 40 1 40 1 -1 -161z m1380 -373
c-1 -406 -9 -729 -17 -665 -1 6 -8 12 -16 12 -21 0 -26 118 -26 582 0 269 -4
419 -10 423 -6 3 -12 0 -14 -7 -3 -7 -7 -233 -10 -503 -3 -269 -6 -492 -6
-495 -1 -3 -5 4 -10 15 -8 17 -9 16 -11 -10 -8 -103 -17 175 -18 553 -1 386
-3 442 -16 442 -13 0 -15 -52 -16 -402 0 -222 -4 -423 -9 -448 -18 -89 -28
-125 -30 -110 -2 8 -6 229 -9 490 -4 306 -10 475 -16 475 -6 0 -12 -160 -15
-449 -4 -347 -8 -450 -17 -454 -7 -2 -13 -13 -13 -24 0 -12 -3 -18 -7 -14 -5
4 -10 217 -13 472 -3 299 -9 464 -15 464 -6 0 -12 -153 -15 -427 -3 -278 -8
-423 -15 -413 -7 12 -10 10 -16 -10 -4 -14 -7 142 -8 345 -1 375 -7 505 -22
505 -5 0 -9 -125 -9 -277 0 -153 -3 -342 -7 -421 -5 -122 -8 -139 -19 -123
-11 15 -14 105 -16 417 -2 296 -6 398 -15 401 -9 3 -13 -95 -15 -407 -2 -285
-6 -413 -14 -418 -6 -4 -13 -14 -16 -22 -5 -16 -18 503 -18 722 0 97 -3 128
-13 128 -10 0 -13 -81 -16 -387 -2 -323 -5 -389 -17 -396 -8 -4 -15 -16 -15
-25 -1 -9 -5 8 -9 38 -5 30 -8 250 -9 488 l-1 432 300 0 300 0 -1 -497z m1789
389 c124 -87 510 -252 587 -252 10 0 15 -3 12 -7 -4 -3 -2 -12 4 -20 9 -10 5
-12 -22 -7 -21 3 -29 2 -22 -3 8 -5 -17 -9 -62 -8 -73 0 -99 9 -52 18 19 4 18
4 -5 6 -18 0 -28 -4 -28 -13 0 -9 -12 -13 -45 -11 -30 2 -43 -1 -38 -8 4 -7
-30 -8 -115 -4 -79 4 -122 3 -122 -3 0 -6 -18 -10 -39 -10 -22 0 -42 -5 -44
-12 -3 -7 -6 1 -7 17 -2 30 -2 30 -10 5 -5 -15 -9 -19 -11 -10 -1 8 -5 -10 -9
-40 -4 -33 -7 32 -8 163 -1 119 1 217 4 217 3 0 18 -8 32 -18z m3827 -74 c-3
-18 -12 -77 -20 -131 -18 -116 -56 -295 -83 -387 l-19 -65 -39 3 c-21 2 -41 5
-43 8 -3 2 8 53 22 112 24 93 80 380 89 452 2 21 10 26 43 31 22 3 44 7 48 8
4 0 5 -14 2 -31z m-5301 -130 c27 -122 54 -301 49 -315 -4 -9 -30 -13 -84 -13
-83 0 -109 -16 -36 -23 l42 -4 -43 -1 c-31 -2 -44 2 -49 14 -10 26 29 320 53
407 3 10 15 17 28 17 20 0 24 -9 40 -82z m4536 -2 c0 -31 -10 -56 -22 -56 -5
0 -43 -15 -84 -34 -57 -27 -91 -52 -151 -113 -75 -75 -70 -51 6 31 20 22 27
33 15 25 -60 -41 -206 -230 -290 -377 -52 -91 -55 -90 -13 3 40 90 32 93 -11
4 -40 -82 -52 -95 -69 -75 -28 34 182 355 296 454 73 64 166 119 238 142 79
25 85 24 85 -4z m-6465 -10 c163 -49 349 -236 404 -406 11 -36 35 -105 52
-155 17 -49 39 -118 48 -153 10 -34 20 -59 24 -55 4 3 7 -1 7 -9 0 -9 3 -31 6
-49 8 -49 -69 135 -111 264 -44 135 -74 207 -89 209 -6 0 -24 3 -41 5 -115 16
-245 -13 -245 -55 0 -7 -4 -10 -10 -7 -16 10 -12 -12 10 -51 30 -53 117 -292
123 -339 6 -45 9 -52 -63 135 -29 74 -74 189 -100 255 -57 144 -125 345 -135
399 l-6 39 38 -6 c21 -4 61 -13 88 -21z m6825 12 c0 -11 -7 -39 -45 -178 -72
-263 -243 -720 -269 -720 -7 0 44 160 83 258 12 28 17 52 12 52 -5 0 -17 -21
-26 -47 -8 -27 -22 -59 -31 -73 l-15 -25 6 25 c4 14 32 87 62 164 49 125 53
140 39 154 -21 22 -120 40 -191 36 -109 -6 -108 -6 -144 -59 -18 -27 -37 -49
-42 -47 -5 1 -9 -13 -9 -32 0 -32 -112 -351 -130 -370 -5 -5 -2 13 7 40 9 27
17 61 17 76 1 14 5 24 10 21 4 -3 5 4 2 15 -7 20 61 208 71 198 3 -2 0 -13 -5
-23 -15 -27 -44 -129 -34 -118 19 21 54 134 47 154 -8 25 11 62 90 176 83 119
144 186 220 240 71 51 126 74 205 85 30 4 58 8 63 9 4 0 7 -5 7 -11z m-752
-80 c-3 -30 -6 -33 -35 -32 -275 4 -255 2 -251 27 4 26 40 33 191 35 l98 2 -3
-32z m-3254 -191 c30 -21 56 -71 56 -108 0 -65 -70 -129 -141 -129 -64 0 -119
65 -119 139 0 33 7 49 36 80 49 55 106 61 168 18z m2648 -194 l2 -98 3 98 4
97 59 0 60 0 0 -140 c0 -87 -4 -140 -10 -140 -5 0 -11 24 -11 53 l-2 52 -6
-52 c-6 -52 -20 -83 -22 -47 0 17 -2 17 -11 -3 -6 -13 -15 -23 -20 -23 -4 0
-8 -12 -9 -27 l-1 -28 -12 28 c-16 36 -26 25 -27 -32 -1 -40 -3 -37 -10 24 -5
39 -14 72 -19 73 -6 2 -9 34 -9 70 2 60 3 63 9 27 5 -29 8 -13 9 63 1 133 20
137 23 5z m-4979 56 c64 24 227 -139 357 -358 76 -128 83 -146 65 -161 -10 -8
-18 -2 -36 27 -25 41 -110 160 -161 227 -44 58 -120 136 -128 131 -9 -6 -150
129 -150 144 0 9 5 8 15 -3 11 -11 22 -13 38 -7z m3377 -70 c0 -4 -63 -85
-141 -180 -77 -96 -193 -239 -256 -319 -64 -80 -120 -149 -125 -155 -6 -6 -24
6 -50 35 -23 25 -84 90 -136 145 -125 133 -128 137 -107 169 10 14 22 26 29
25 6 0 60 -54 120 -118 l110 -118 41 56 c23 31 84 108 135 171 51 63 140 175
199 247 l106 132 37 -42 c20 -23 37 -45 38 -48z m-4561 29 c48 -188 195 -520
411 -927 27 -51 43 -88 35 -81 -8 6 -17 22 -21 33 -3 12 -15 31 -25 42 -44 48
-196 343 -291 565 -57 134 -138 366 -138 398 0 40 16 23 29 -30z m2701 -50 c0
-51 3 -103 6 -115 l6 -23 -156 0 -156 0 0 45 c0 25 5 45 10 45 6 0 10 -13 10
-30 0 -16 2 -30 4 -30 2 0 11 -3 20 -6 14 -5 16 7 16 94 0 71 4 102 13 105 6
3 60 6 120 6 l107 1 0 -92z m5058 -5 c32 -8 28 -25 -59 -244 -119 -300 -262
-570 -436 -823 -113 -164 -328 -429 -426 -524 -54 -52 -81 -85 -73 -88 8 -3
134 -4 282 -2 l269 3 130 76 c72 41 198 111 280 154 83 43 155 81 160 85 6 4
66 37 135 73 350 183 513 267 518 267 2 0 20 14 39 30 38 34 68 38 95 13 22
-20 23 -42 2 -71 -20 -29 -58 -28 -80 1 l-17 23 -76 -39 c-283 -146 -986 -519
-1089 -579 l-43 -25 38 -6 c21 -4 250 -8 508 -9 297 -1 429 -4 360 -8 -60 -4
-434 -8 -830 -9 l-721 -1 -59 -60 c-56 -57 -62 -60 -107 -60 l-47 0 101 105
c55 57 105 102 111 98 6 -4 7 -1 2 6 -5 9 15 36 58 80 116 119 322 379 444
561 182 271 346 606 439 893 30 92 34 96 92 80z m-1203 -151 c35 -40 38 -46
25 -65 -18 -30 -84 -109 -147 -177 -29 -31 -53 -62 -53 -68 0 -21 -18 -13 -40
18 -28 40 -21 67 36 150 25 36 64 93 87 128 23 34 44 61 47 60 4 -2 24 -22 45
-46z m-6255 -47 c15 -39 41 -102 58 -142 l30 -72 -35 -21 c-20 -11 -37 -19
-39 -18 -9 10 -124 282 -124 295 0 5 65 31 73 29 5 -1 21 -33 37 -71z m2398
-150 c4 -221 -9 -714 -17 -671 -8 37 -28 45 -40 14 -7 -17 -10 -18 -10 -5 -1
18 -21 25 -21 7 0 -5 -10 -9 -22 -9 -17 1 -19 2 -5 6 12 3 17 15 17 44 0 24
-5 39 -12 39 -9 0 -9 3 0 12 17 17 15 45 -4 52 -24 9 -35 -3 -33 -37 5 -68 -1
-123 -11 -107 -5 8 -10 11 -10 7 0 -4 -9 -3 -19 3 -17 9 -20 6 -23 -22 -2 -18
-7 15 -12 74 -5 58 -6 110 -3 115 4 6 27 11 53 11 56 3 58 4 95 54 25 35 29
50 29 105 0 55 4 68 23 84 l22 20 -84 -4 c-82 -4 -86 -5 -113 -38 l-28 -33 0
237 0 238 113 -3 112 -3 3 -190z m5734 110 c74 -49 100 -160 55 -240 -53 -94
-169 -129 -249 -75 -21 14 -38 31 -38 38 0 10 -4 10 -16 -2 -17 -18 -64 -22
-64 -6 0 6 11 10 25 10 24 0 32 18 26 54 -6 31 12 65 38 71 22 5 29 14 39 51
17 61 16 85 -3 78 -19 -8 -20 10 -1 25 45 38 128 36 188 -4z m-8735 -28 c-36
-33 -61 -64 -67 -85 -24 -87 39 -192 126 -208 45 -8 105 14 122 46 17 33 7
117 -18 152 -30 42 -24 47 10 8 19 -23 29 -46 30 -67 0 -31 2 -33 38 -34 20
-1 29 -3 20 -6 -36 -9 -10 -63 30 -63 16 0 23 30 12 51 -7 12 -7 19 -1 19 6 0
15 -9 21 -20 17 -32 -4 -60 -43 -60 -37 0 -57 15 -58 45 -1 14 -4 10 -12 -13
-18 -57 -94 -89 -165 -70 -44 12 -99 61 -118 105 -20 46 -18 122 5 159 16 26
103 94 120 94 3 0 -20 -24 -52 -53z m5192 -34 c17 -25 31 -56 31 -68 0 -26
-25 -51 -62 -60 -39 -10 -83 34 -74 76 6 30 52 99 66 99 5 0 22 -21 39 -47z
m-1621 -56 c30 -43 52 -79 51 -80 -2 -1 -42 -1 -88 1 l-83 4 4 69 c4 71 16 92
48 86 8 -1 39 -37 68 -80z m-2824 -172 c25 -52 93 -179 151 -281 59 -102 105
-186 103 -187 -1 -1 -17 -10 -35 -20 l-32 -17 -97 162 c-91 153 -204 370 -204
394 0 8 45 37 67 43 2 1 23 -42 47 -94z m1271 30 c64 -71 145 -176 145 -187 0
-4 -14 -22 -30 -40 -17 -18 -27 -25 -24 -15 5 13 2 16 -12 10 -11 -4 -15 -3
-11 4 4 6 0 14 -9 17 -8 3 -12 2 -9 -4 3 -6 2 -10 -2 -10 -5 0 -33 27 -61 59
-29 32 -72 74 -97 92 -24 19 -45 40 -45 47 0 6 -7 12 -16 12 -25 0 67 79 92
80 14 0 42 -23 79 -65z m4717 -77 c-8 -10 -22 -18 -31 -18 -9 0 -22 -9 -29
-20 -7 -11 -22 -20 -35 -20 -12 0 -34 -8 -47 -17 -28 -20 -29 -20 -41 -1 -6 9
-9 6 -10 -12 0 -22 -1 -23 -8 -6 -7 18 -8 18 -14 2 -4 -10 -4 -23 -1 -29 5 -8
3 -8 -6 0 -11 10 -2 35 47 136 l61 124 65 -61 c59 -56 63 -62 49 -78z m-3826
-26 c37 -25 37 -85 -2 -127 -29 -32 -68 -32 -99 0 -51 50 -15 135 57 135 18 0
38 -4 44 -8z m1064 -442 c18 -22 28 -45 24 -51 -4 -7 -3 -9 3 -6 6 4 23 -9 38
-29 22 -29 25 -38 14 -45 -7 -4 -18 -4 -24 1 -6 5 -21 7 -33 3 -13 -3 -22 -1
-22 6 0 6 7 11 15 11 8 0 15 5 15 10 0 6 -11 10 -25 10 -14 0 -25 5 -25 10 0
6 4 10 9 10 5 0 12 7 15 16 5 14 4 15 -9 4 -12 -10 -15 -10 -15 4 0 9 -3 15
-7 15 -25 -4 -57 2 -46 9 7 4 11 17 10 30 -1 23 -22 36 -39 26 -6 -4 -8 2 -3
16 5 15 4 20 -4 16 -10 -6 -16 13 -12 37 0 4 -4 7 -10 7 -6 0 -8 7 -5 16 4 9
1 23 -5 30 -6 8 -9 14 -5 14 4 0 0 13 -9 30 -31 60 -13 41 54 -58 38 -56 83
-120 101 -142z m-4139 64 c7 -9 51 -35 98 -59 103 -52 452 -237 686 -365 94
-51 224 -122 290 -158 65 -35 137 -76 160 -90 l40 -26 330 -3 330 -2 49 -55
c43 -49 47 -57 33 -70 -24 -25 -58 -10 -115 49 l-54 55 -625 0 -625 0 -20 -25
c-23 -30 -68 -55 -99 -55 -33 0 -89 62 -89 99 0 39 24 87 49 101 29 15 93 12
118 -5 13 -9 28 -34 34 -55 l12 -40 309 0 c169 0 308 3 308 8 0 8 -83 55 -455
254 -479 257 -608 325 -672 356 -59 28 -63 29 -78 12 -27 -30 -55 -31 -81 -5
-29 29 -30 49 -4 75 24 24 53 26 71 4z m2214 -38 c149 -42 388 -106 435 -116
145 -31 418 -119 504 -163 49 -25 49 -25 20 -31 -60 -11 -129 -16 -109 -7 19
8 18 9 -5 12 -16 3 -24 10 -22 19 2 8 0 12 -4 8 -4 -4 -20 4 -37 18 -44 37
-130 79 -135 65 -2 -6 -8 -9 -13 -5 -5 3 -22 7 -37 10 -15 2 -49 10 -77 16
-27 7 -54 11 -60 9 -16 -4 -139 21 -175 37 -19 8 -55 17 -80 20 -25 2 -54 13
-67 24 l-22 20 6 -23 c5 -21 4 -22 -8 -8 -17 19 -49 32 -49 20 0 -5 6 -12 13
-14 8 -4 9 -6 0 -6 -6 -1 -19 6 -27 15 -13 13 -22 14 -48 5 -41 -14 -40 -15
-33 12 5 17 4 19 -4 7 -9 -12 -19 -6 -62 38 -28 28 -45 52 -37 52 8 0 68 -15
133 -34z m4725 25 c0 -4 -16 -29 -36 -56 -25 -31 -39 -43 -44 -35 -6 9 -9 9
-15 0 -4 -6 -13 -9 -21 -6 -8 3 -14 2 -14 -3 0 -4 -12 -6 -26 -3 -20 4 -25 2
-19 -8 5 -8 3 -11 -6 -8 -8 3 -13 12 -11 21 1 8 -2 18 -8 22 -6 3 -7 0 -4 -10
5 -11 -2 -17 -25 -21 -17 -4 -34 -11 -37 -15 -3 -5 -25 -9 -49 -9 -24 0 -45
-5 -47 -10 -2 -6 -20 -11 -41 -12 -20 -1 -37 -4 -37 -8 0 -4 -19 -3 -43 2 -28
6 -52 5 -68 -2 -22 -9 -22 -10 7 -5 16 3 41 2 55 -4 21 -8 19 -9 -16 -9 -178
1 -322 -42 -395 -117 -31 -32 -39 -35 -92 -35 -32 0 -58 4 -58 9 0 4 24 17 53
29 28 11 60 23 70 27 10 4 17 3 17 -4 0 -6 -8 -11 -17 -12 -12 0 -14 -2 -5 -6
8 -3 26 6 40 20 37 34 125 67 342 127 180 50 389 109 480 136 55 15 70 17 70
5z m-5737 -43 c7 -19 277 -382 289 -389 13 -8 2 -29 -15 -29 -29 0 -347 357
-347 389 0 7 51 40 61 41 4 0 9 -6 12 -12z m4767 -328 c0 -19 -82 -22 -374
-17 -451 9 -454 24 -3 25 211 0 377 -3 377 -8z m-2309 -74 c55 -17 218 -96
316 -154 97 -57 252 -174 342 -258 64 -59 176 -195 195 -236 5 -10 7 -10 12 0
3 7 37 52 74 101 72 93 193 206 300 283 194 136 476 278 555 278 33 0 32 -19
-2 -31 -48 -16 -129 -60 -103 -54 14 3 66 14 115 24 135 29 175 32 175 15 0
-13 18 -14 113 -9 61 4 118 8 125 10 18 6 15 -9 -6 -28 -10 -10 -30 -16 -43
-16 -52 3 -210 -14 -202 -22 5 -5 53 -4 107 2 54 5 101 8 104 5 9 -10 -29 -45
-46 -41 -10 1 -53 -3 -97 -11 -44 -7 -86 -13 -92 -13 -7 -1 -13 -6 -13 -11 0
-6 16 -8 38 -5 20 2 56 7 79 9 22 3 53 8 67 12 34 8 33 -3 -7 -48 -29 -34 -40
-39 -117 -53 -147 -27 -195 -39 -208 -52 -7 -7 -25 -14 -40 -14 -15 -1 -20 -3
-11 -6 9 -2 60 7 113 21 120 31 216 43 216 27 0 -13 -27 -25 -90 -39 l-45 -11
48 4 c26 2 47 1 47 -1 0 -12 -85 -39 -195 -61 -124 -25 -293 -78 -380 -119
-78 -36 -243 -150 -308 -211 -54 -52 -86 -66 -57 -26 7 10 -8 -3 -33 -30 -26
-26 -46 -51 -45 -55 3 -8 -71 -122 -79 -122 -3 0 2 10 10 23 28 38 57 87 52
87 -12 0 -86 -124 -101 -170 l-17 -54 -13 35 c-15 45 -103 183 -111 175 -8 -7
-43 23 -43 37 0 6 10 2 22 -9 13 -10 7 1 -13 25 -20 25 -69 74 -110 109 -67
58 -66 56 16 -21 49 -47 87 -88 84 -91 -3 -3 -25 12 -50 33 -55 50 -68 42 -14
-8 22 -21 53 -54 70 -72 16 -19 -12 6 -62 55 -51 49 -90 93 -87 98 3 5 -5 18
-18 29 -42 36 -139 101 -144 96 -3 -3 25 -25 63 -49 69 -45 105 -78 85 -78 -6
0 -13 4 -16 9 -7 11 -138 101 -179 123 -77 41 -35 0 81 -77 28 -20 52 -40 52
-45 0 -11 -81 44 -150 101 -25 21 -72 49 -105 64 -59 27 -162 65 -174 65 -3 0
42 -24 100 -53 58 -29 134 -75 168 -103 35 -27 76 -58 92 -69 16 -11 31 -25
33 -32 5 -13 -65 38 -110 81 -34 31 -355 195 -432 221 -81 26 -55 29 40 4 197
-52 253 -71 291 -99 23 -17 46 -30 51 -30 6 1 -2 8 -17 16 -16 9 -27 18 -24
20 3 3 31 -9 63 -27 42 -23 55 -28 44 -14 -21 25 -129 74 -225 100 -44 13
-113 32 -154 44 -41 12 -92 24 -113 26 -43 4 -127 33 -143 48 -6 6 2 7 25 3
81 -16 131 -23 123 -16 -4 4 -42 13 -83 20 -97 16 -97 16 -109 38 -9 17 -6 18
49 11 72 -8 135 -23 266 -60 56 -16 106 -29 110 -29 19 1 -28 21 -102 43 -149
46 -189 57 -269 72 -50 10 -87 24 -100 36 l-20 20 35 -5 c19 -3 64 -7 100 -10
84 -6 26 9 -72 19 -38 4 -72 13 -79 21 -14 17 -18 17 106 -1 184 -28 191 -28
180 -17 -5 5 -71 20 -145 32 -138 22 -180 35 -188 58 -4 13 49 18 62 5 10 -11
226 -41 231 -33 9 15 -247 57 -285 47 -11 -3 -26 3 -37 15 l-18 21 128 -7
c114 -7 127 -6 127 9 0 13 6 15 33 10 59 -12 251 -55 285 -64 56 -16 25 6 -51
35 -94 35 -109 43 -102 55 8 13 32 11 86 -5z m1943 -386 c-12 -12 -149 -49
-219 -59 -27 -5 -82 -20 -121 -34 -39 -15 -80 -27 -91 -27 -12 0 -26 -7 -33
-15 -7 -9 -19 -14 -26 -11 -7 3 -16 0 -20 -6 -4 -7 -3 -8 4 -4 7 4 12 5 12 2
0 -2 -26 -21 -59 -40 -32 -20 -64 -42 -70 -50 -7 -8 -18 -13 -25 -10 -8 3 -31
-11 -52 -31 -22 -20 -59 -55 -84 -78 -25 -24 -17 -12 20 28 36 38 97 89 135
113 39 24 79 52 90 62 49 43 282 120 470 155 39 7 72 13 75 14 2 1 0 -3 -6 -9z
m-3499 -60 c108 -4 20 -18 -119 -19 l-129 -1 49 -38 c228 -178 293 -232 284
-237 -6 -3 -25 4 -43 17 -74 52 -197 146 -263 200 l-71 58 -541 0 c-350 0
-542 3 -542 10 0 12 1090 21 1375 10z m6285 -10 c0 -7 -204 -10 -575 -10
l-575 0 -93 -73 c-191 -150 -343 -257 -366 -257 -14 0 -14 -2 -1 -10 9 -6 239
-10 598 -10 569 0 582 0 602 -20 23 -23 26 -59 8 -82 -17 -20 -46 -30 -53 -18
-4 6 1 10 9 10 29 0 30 63 2 82 -6 4 -238 8 -516 9 -278 1 -549 4 -604 8 l-98
6 43 31 c24 18 55 42 69 54 14 12 41 34 60 48 19 15 56 45 82 68 26 23 79 63
118 89 38 27 70 52 70 57 0 4 -65 8 -144 8 -157 0 -225 12 -116 20 123 9 1480
0 1480 -10z m-1470 -75 c-62 -65 -362 -287 -495 -367 -122 -73 -361 -198 -379
-198 -6 0 -2 8 9 17 19 15 19 15 -10 9 l-30 -6 28 15 c33 19 35 29 5 19 -38
-11 -15 5 109 75 247 142 445 274 578 386 89 76 118 91 176 94 l54 2 -45 -46z
m-4333 -256 c61 -41 124 -81 140 -91 175 -102 212 -126 205 -133 -4 -5 -2 -5
5 -2 6 4 31 -5 55 -19 29 -18 35 -24 18 -20 -14 3 -31 6 -38 6 -7 0 -11 4 -8
8 3 5 -8 9 -24 9 -17 0 -30 -4 -30 -9 0 -4 4 -8 9 -8 5 0 11 -6 14 -14 5 -12
2 -12 -21 0 -15 8 -31 14 -35 14 -18 0 -239 128 -352 203 -128 86 -285 205
-285 217 0 4 9 19 20 33 l21 26 97 -73 c53 -40 147 -106 209 -147z m6113 86
c23 -24 23 -25 5 -45 -23 -25 -40 -25 -72 0 -25 19 -42 20 -642 22 -506 1
-572 3 -367 9 137 4 420 4 628 0 261 -4 378 -3 378 5 0 13 21 34 35 34 6 0 22
-11 35 -25z m-6470 -126 c-47 -4 -357 -8 -690 -8 -333 -1 -615 -4 -626 -7 -16
-4 -23 -16 -28 -45 -10 -60 -46 -48 -46 16 0 35 19 44 105 48 162 7 1367 4
1285 -4z m2680 -73 c0 -2 -32 -37 -71 -77 -91 -95 -171 -195 -249 -309 -35
-50 -66 -89 -71 -88 -4 2 -43 53 -87 113 -44 61 -115 150 -158 199 -44 49 -90
103 -104 120 l-25 31 35 -24 c65 -45 184 -175 264 -288 l79 -111 45 67 c114
167 193 258 292 335 47 37 50 38 50 32z m-4103 -151 c28 -34 28 -34 118 -36
82 -2 90 0 90 17 0 35 15 44 70 44 49 0 55 -2 61 -24 3 -14 4 -33 2 -43 -3
-17 -15 -18 -166 -14 -143 3 -162 2 -168 -13 -4 -9 -19 -23 -35 -32 -32 -16
-51 -10 -83 24 -16 18 -16 26 -6 56 21 65 73 74 117 21z m7687 -88 l31 -37
161 0 c111 0 164 -4 172 -12 13 -13 16 -67 4 -84 -5 -8 -178 -13 -567 -17
-308 -4 -738 -11 -955 -17 -217 -5 -578 -11 -803 -12 l-407 -3 0 35 0 36 718
-2 c394 -1 1006 -5 1360 -9 l642 -7 0 36 0 36 -165 0 -166 0 -38 41 c-35 38
-41 41 -79 37 -25 -2 -42 1 -42 7 0 6 22 10 52 9 46 0 54 -4 82 -37z m-7839
21 c-11 -6 -35 -25 -53 -42 l-33 -31 -164 2 c-155 2 -164 1 -170 -17 -4 -11
-3 -29 0 -41 l7 -21 631 7 c1004 12 2087 11 2217 -1 l115 -11 -147 -2 c-141
-1 -148 -2 -148 -21 0 -20 -7 -20 -482 -20 -266 0 -744 7 -1063 15 -319 8
-707 15 -862 15 l-283 0 0 55 0 55 169 0 170 0 27 35 c20 27 33 35 58 35 28
-1 29 -2 11 -12z m2263 -80 c3 -17 -49 -18 -987 -18 -985 0 -991 0 -991 20 0
20 5 20 987 18 932 -3 988 -4 991 -20z m5222 2 c0 -20 -1 -20 -928 -20 -511 0
-963 -3 -1005 -6 l-77 -7 0 26 0 25 1005 2 c1005 1 1005 1 1005 -20z m-4960
-160 c158 -3 167 -4 90 -10 -103 -9 -330 -13 -627 -11 -171 1 -223 4 -223 14
0 12 313 15 760 7z m3410 -5 c0 -13 -46 -15 -317 -15 -175 0 -370 3 -433 8
-104 6 -89 7 155 12 576 11 595 10 595 -5z m-3260 -73 l115 -7 -182 -9 c-165
-7 -183 -10 -183 -26 0 -21 49 -30 179 -31 47 -1 111 -4 141 -9 30 -4 -219 -8
-555 -9 -335 0 -828 -3 -1095 -5 -377 -3 -409 -2 -143 3 188 3 344 9 347 12 6
6 -87 14 -309 29 -99 6 -90 7 98 8 114 1 207 6 207 10 0 9 -381 22 -632 22
-84 0 -138 4 -138 10 0 6 106 11 283 13 438 5 1739 -2 1867 -11z m4522 0 c5
-5 -103 -12 -254 -15 -342 -9 -498 -18 -498 -29 0 -4 125 -9 278 -10 l277 -2
-190 -7 c-104 -3 -230 -8 -280 -9 -65 -2 -82 -5 -60 -10 17 -4 -307 -8 -720
-8 -412 0 -730 4 -705 9 25 4 84 8 131 8 113 1 149 9 149 31 0 16 -19 18 -182
26 l-183 8 160 8 c88 4 171 9 185 12 46 9 1883 -3 1892 -12z m-4497 -157 c161
-13 78 -21 -145 -15 -102 3 -261 3 -355 -1 -93 -4 -284 -3 -425 2 -140 4 -363
9 -495 11 l-240 2 195 6 c300 8 1342 4 1465 -5z m3785 3 l225 -2 -305 -6
c-168 -4 -510 -13 -760 -19 -250 -7 -489 -10 -530 -6 -41 3 -118 7 -170 7
-108 1 -92 3 145 23 128 10 295 13 670 9 275 -2 601 -5 725 -6z m-6933 -100
c33 -31 32 -90 -3 -125 -21 -21 -32 -24 -62 -20 -43 7 -82 46 -82 82 0 13 12
37 26 54 32 39 85 43 121 9z m8801 -1 c12 -13 25 -37 28 -55 5 -26 1 -36 -24
-62 -36 -35 -69 -38 -106 -9 -49 39 -53 90 -11 132 25 25 87 22 113 -6z
m-7098 -27 c0 -7 -282 -10 -826 -10 -547 0 -823 3 -819 10 4 7 290 10 826 10
539 0 819 -3 819 -10z m6930 0 c0 -7 -272 -10 -795 -10 -523 0 -795 3 -795 10
0 7 272 10 795 10 523 0 795 -3 795 -10z m-2352 -347 c106 -3 191 -8 188 -10
-3 -3 -4169 -7 -4209 -4 -5 1 -5 6 -2 11 7 12 3685 14 4023 3z m-328 -173 c0
-7 -532 -10 -1575 -10 -1043 0 -1575 3 -1575 10 0 7 532 10 1575 10 1043 0
1575 -3 1575 -10z"/>
<path d="M7852 10137 c-26 -27 -29 -73 -6 -105 34 -49 134 -12 134 49 0 67
-84 103 -128 56z"/>
<path d="M2060 8900 c0 -121 61 -169 157 -123 49 23 73 66 73 131 l0 52 -115
0 -115 0 0 -60z"/>
<path d="M7091 8514 c-25 -21 -31 -33 -31 -66 0 -99 131 -134 176 -47 22 43
17 77 -15 110 -39 38 -87 39 -130 3z"/>
<path d="M1074 5872 c-47 -38 -56 -85 -23 -126 31 -39 63 -49 104 -31 48 20
73 72 55 115 -22 54 -94 76 -136 42z"/>
<path d="M9622 4070 c-19 -8 -22 -15 -18 -37 3 -16 0 -46 -8 -68 -8 -22 -12
-43 -9 -47 2 -5 26 -8 54 -8 42 0 49 3 49 20 0 11 5 20 10 20 6 0 10 -4 10 -9
0 -5 9 -13 20 -16 13 -4 20 -15 20 -31 0 -30 -25 -42 -48 -22 -10 9 -49 18
-96 22 l-79 7 5 -57 c4 -44 10 -62 27 -75 52 -43 143 -33 206 22 102 90 51
271 -81 285 -21 2 -49 -1 -62 -6z"/>
</g>
</svg>
